{
  "asset": {
    "version": "2.0",
    "generator": "ModelConverterX"
  },
  "extensionsUsed": [],
  "scene": 0,
  "scenes": [
    {
      "nodes": [
        0
      ]
    }
  ],
  "nodes": [
    {
      "name": "node0",
      "children": [
        1,
        2,
        3,
        4,
        5,
        6,
        7,
        8,
        9,
        10,
        11,
        12,
        13
      ]
    },
    {
      "name": "node1",
      "mesh": 0
    },
    {
      "name": "node2",
      "mesh": 1
    },
    {
      "name": "node3",
      "mesh": 2
    },
    {
      "name": "node4",
      "mesh": 3
    },
    {
      "name": "node5",
      "mesh": 4
    },
    {
      "name": "node6",
      "mesh": 5
    },
    {
      "name": "node7",
      "mesh": 6
    },
    {
      "name": "node8",
      "mesh": 7
    },
    {
      "name": "node9",
      "mesh": 8
    },
    {
      "name": "node10",
      "mesh": 9
    },
    {
      "name": "node11",
      "mesh": 10
    },
    {
      "name": "node12",
      "mesh": 11
    },
    {
      "name": "node13",
      "mesh": 12
    }
  ],
  "meshes": [
    {
      "primitives": [
        {
          "attributes": {
            "POSITION": 0,
            "NORMAL": 1,
            "TEXCOORD_0": 2
          },
          "indices": 3,
          "mode": 4,
          "material": 2
        }
      ],
      "name": "part000"
    },
    {
      "primitives": [
        {
          "attributes": {
            "POSITION": 4,
            "NORMAL": 5,
            "TEXCOORD_0": 6
          },
          "indices": 7,
          "mode": 4,
          "material": 1
        }
      ],
      "name": "part001"
    },
    {
      "primitives": [
        {
          "attributes": {
            "POSITION": 8,
            "NORMAL": 9,
            "TEXCOORD_0": 10
          },
          "indices": 11,
          "mode": 4,
          "material": 12
        }
      ],
      "name": "part002"
    },
    {
      "primitives": [
        {
          "attributes": {
            "POSITION": 12,
            "NORMAL": 13,
            "TEXCOORD_0": 14
          },
          "indices": 15,
          "mode": 4,
          "material": 10
        }
      ],
      "name": "part003"
    },
    {
      "primitives": [
        {
          "attributes": {
            "POSITION": 16,
            "NORMAL": 17,
            "TEXCOORD_0": 18
          },
          "indices": 19,
          "mode": 4,
          "material": 8
        }
      ],
      "name": "part004"
    },
    {
      "primitives": [
        {
          "attributes": {
            "POSITION": 20,
            "NORMAL": 21,
            "TEXCOORD_0": 22
          },
          "indices": 23,
          "mode": 4,
          "material": 5
        }
      ],
      "name": "part005"
    },
    {
      "primitives": [
        {
          "attributes": {
            "POSITION": 24,
            "NORMAL": 25,
            "TEXCOORD_0": 26
          },
          "indices": 27,
          "mode": 4,
          "material": 7
        }
      ],
      "name": "part006"
    },
    {
      "primitives": [
        {
          "attributes": {
            "POSITION": 28,
            "NORMAL": 29,
            "TEXCOORD_0": 30
          },
          "indices": 31,
          "mode": 4,
          "material": 3
        }
      ],
      "name": "part007"
    },
    {
      "primitives": [
        {
          "attributes": {
            "POSITION": 32,
            "NORMAL": 33,
            "TEXCOORD_0": 34
          },
          "indices": 35,
          "mode": 4,
          "material": 11
        }
      ],
      "name": "part008"
    },
    {
      "primitives": [
        {
          "attributes": {
            "POSITION": 36,
            "NORMAL": 37,
            "TEXCOORD_0": 38
          },
          "indices": 39,
          "mode": 4,
          "material": 9
        }
      ],
      "name": "part009"
    },
    {
      "primitives": [
        {
          "attributes": {
            "POSITION": 40,
            "NORMAL": 41,
            "TEXCOORD_0": 42
          },
          "indices": 43,
          "mode": 4,
          "material": 6
        }
      ],
      "name": "part010"
    },
    {
      "primitives": [
        {
          "attributes": {
            "POSITION": 44,
            "NORMAL": 45,
            "TEXCOORD_0": 46
          },
          "indices": 47,
          "mode": 4,
          "material": 4
        }
      ],
      "name": "part011"
    },
    {
      "primitives": [
        {
          "attributes": {
            "POSITION": 48,
            "NORMAL": 49,
            "TEXCOORD_0": 50
          },
          "indices": 51,
          "mode": 4,
          "material": 0
        }
      ],
      "name": "part012"
    }
  ],
  "accessors": [
    {
      "bufferView": 1,
      "byteOffset": 0,
      "componentType": 5126,
      "count": 685,
      "type": "VEC3",
      "min": [
        754.00873,
        -0.01062,
        -195.7036
      ],
      "max": [
        779.7287,
        6.64506,
        -172.05611
      ]
    },
    {
      "bufferView": 2,
      "byteOffset": 0,
      "componentType": 5126,
      "count": 685,
      "type": "VEC3"
    },
    {
      "bufferView": 3,
      "byteOffset": 0,
      "componentType": 5126,
      "count": 685,
      "type": "VEC2"
    },
    {
      "bufferView": 0,
      "byteOffset": 0,
      "componentType": 5125,
      "count": 1161,
      "type": "SCALAR"
    },
    {
      "bufferView": 1,
      "byteOffset": 8220,
      "componentType": 5126,
      "count": 1189,
      "type": "VEC3",
      "min": [
        754.17548,
        -0.01062,
        -195.7036
      ],
      "max": [
        779.44171,
        6.71325,
        -172.05611
      ]
    },
    {
      "bufferView": 2,
      "byteOffset": 8220,
      "componentType": 5126,
      "count": 1189,
      "type": "VEC3"
    },
    {
      "bufferView": 3,
      "byteOffset": 5480,
      "componentType": 5126,
      "count": 1189,
      "type": "VEC2"
    },
    {
      "bufferView": 0,
      "byteOffset": 4644,
      "componentType": 5125,
      "count": 2442,
      "type": "SCALAR"
    },
    {
      "bufferView": 1,
      "byteOffset": 22488,
      "componentType": 5126,
      "count": 101,
      "type": "VEC3",
      "min": [
        754.58069,
        -0.01062,
        -192.0896
      ],
      "max": [
        756.64471,
        6.67651,
        -175.034
      ]
    },
    {
      "bufferView": 2,
      "byteOffset": 22488,
      "componentType": 5126,
      "count": 101,
      "type": "VEC3"
    },
    {
      "bufferView": 3,
      "byteOffset": 14992,
      "componentType": 5126,
      "count": 101,
      "type": "VEC2"
    },
    {
      "bufferView": 0,
      "byteOffset": 14412,
      "componentType": 5125,
      "count": 207,
      "type": "SCALAR"
    },
    {
      "bufferView": 1,
      "byteOffset": 23700,
      "componentType": 5126,
      "count": 288,
      "type": "VEC3",
      "min": [
        754.00873,
        -0.01062,
        -196.1265
      ],
      "max": [
        779.7287,
        6.73162,
        -171.946
      ]
    },
    {
      "bufferView": 2,
      "byteOffset": 23700,
      "componentType": 5126,
      "count": 288,
      "type": "VEC3"
    },
    {
      "bufferView": 3,
      "byteOffset": 15800,
      "componentType": 5126,
      "count": 288,
      "type": "VEC2"
    },
    {
      "bufferView": 0,
      "byteOffset": 15240,
      "componentType": 5125,
      "count": 588,
      "type": "SCALAR"
    },
    {
      "bufferView": 1,
      "byteOffset": 27156,
      "componentType": 5126,
      "count": 76,
      "type": "VEC3",
      "min": [
        755.06299,
        -0.01062,
        -195.6514
      ],
      "max": [
        778.99707,
        4.33526,
        -172.3479
      ]
    },
    {
      "bufferView": 2,
      "byteOffset": 27156,
      "componentType": 5126,
      "count": 76,
      "type": "VEC3"
    },
    {
      "bufferView": 3,
      "byteOffset": 18104,
      "componentType": 5126,
      "count": 76,
      "type": "VEC2"
    },
    {
      "bufferView": 0,
      "byteOffset": 17592,
      "componentType": 5125,
      "count": 210,
      "type": "SCALAR"
    },
    {
      "bufferView": 1,
      "byteOffset": 28068,
      "componentType": 5126,
      "count": 63,
      "type": "VEC3",
      "min": [
        754.68732,
        -0.01062,
        -187.61749
      ],
      "max": [
        778.96973,
        5.56033,
        -175.3248
      ]
    },
    {
      "bufferView": 2,
      "byteOffset": 28068,
      "componentType": 5126,
      "count": 63,
      "type": "VEC3"
    },
    {
      "bufferView": 3,
      "byteOffset": 18712,
      "componentType": 5126,
      "count": 63,
      "type": "VEC2"
    },
    {
      "bufferView": 0,
      "byteOffset": 18432,
      "componentType": 5125,
      "count": 111,
      "type": "SCALAR"
    },
    {
      "bufferView": 1,
      "byteOffset": 28824,
      "componentType": 5126,
      "count": 32,
      "type": "VEC3",
      "min": [
        755.06299,
        -0.01062,
        -195.6514
      ],
      "max": [
        778.99707,
        0.54161,
        -172.3479
      ]
    },
    {
      "bufferView": 2,
      "byteOffset": 28824,
      "componentType": 5126,
      "count": 32,
      "type": "VEC3"
    },
    {
      "bufferView": 3,
      "byteOffset": 19216,
      "componentType": 5126,
      "count": 32,
      "type": "VEC2"
    },
    {
      "bufferView": 0,
      "byteOffset": 18876,
      "componentType": 5125,
      "count": 48,
      "type": "SCALAR"
    },
    {
      "bufferView": 1,
      "byteOffset": 29208,
      "componentType": 5126,
      "count": 8,
      "type": "VEC3",
      "min": [
        755.68402,
        4.66317,
        -187.9041
      ],
      "max": [
        755.99371,
        5.13148,
        -185.66611
      ]
    },
    {
      "bufferView": 2,
      "byteOffset": 29208,
      "componentType": 5126,
      "count": 8,
      "type": "VEC3"
    },
    {
      "bufferView": 3,
      "byteOffset": 19472,
      "componentType": 5126,
      "count": 8,
      "type": "VEC2"
    },
    {
      "bufferView": 0,
      "byteOffset": 19068,
      "componentType": 5125,
      "count": 12,
      "type": "SCALAR"
    },
    {
      "bufferView": 1,
      "byteOffset": 29304,
      "componentType": 5126,
      "count": 796,
      "type": "VEC3",
      "min": [
        755.00299,
        0.24078,
        -192.10049
      ],
      "max": [
        779.09583,
        5.58895,
        -173.271
      ]
    },
    {
      "bufferView": 2,
      "byteOffset": 29304,
      "componentType": 5126,
      "count": 796,
      "type": "VEC3"
    },
    {
      "bufferView": 3,
      "byteOffset": 19536,
      "componentType": 5126,
      "count": 796,
      "type": "VEC2"
    },
    {
      "bufferView": 0,
      "byteOffset": 19116,
      "componentType": 5125,
      "count": 1434,
      "type": "SCALAR"
    },
    {
      "bufferView": 1,
      "byteOffset": 38856,
      "componentType": 5126,
      "count": 22,
      "type": "VEC3",
      "min": [
        754.4389,
        4.15993,
        -192.11681
      ],
      "max": [
        778.99707,
        4.66317,
        -172.3479
      ]
    },
    {
      "bufferView": 2,
      "byteOffset": 38856,
      "componentType": 5126,
      "count": 22,
      "type": "VEC3"
    },
    {
      "bufferView": 3,
      "byteOffset": 25904,
      "componentType": 5126,
      "count": 22,
      "type": "VEC2"
    },
    {
      "bufferView": 0,
      "byteOffset": 24852,
      "componentType": 5125,
      "count": 54,
      "type": "SCALAR"
    },
    {
      "bufferView": 1,
      "byteOffset": 39120,
      "componentType": 5126,
      "count": 6,
      "type": "VEC3",
      "min": [
        778.00708,
        3.78369,
        -181.8763
      ],
      "max": [
        778.33472,
        4.5568,
        -179.1692
      ]
    },
    {
      "bufferView": 2,
      "byteOffset": 39120,
      "componentType": 5126,
      "count": 6,
      "type": "VEC3"
    },
    {
      "bufferView": 3,
      "byteOffset": 26080,
      "componentType": 5126,
      "count": 6,
      "type": "VEC2"
    },
    {
      "bufferView": 0,
      "byteOffset": 25068,
      "componentType": 5125,
      "count": 12,
      "type": "SCALAR"
    },
    {
      "bufferView": 1,
      "byteOffset": 39192,
      "componentType": 5126,
      "count": 186,
      "type": "VEC3",
      "min": [
        754.41351,
        -0.01062,
        -192.3131
      ],
      "max": [
        779.44171,
        4.66317,
        -172.05611
      ]
    },
    {
      "bufferView": 2,
      "byteOffset": 39192,
      "componentType": 5126,
      "count": 186,
      "type": "VEC3"
    },
    {
      "bufferView": 3,
      "byteOffset": 26128,
      "componentType": 5126,
      "count": 186,
      "type": "VEC2"
    },
    {
      "bufferView": 0,
      "byteOffset": 25116,
      "componentType": 5125,
      "count": 300,
      "type": "SCALAR"
    },
    {
      "bufferView": 1,
      "byteOffset": 41424,
      "componentType": 5126,
      "count": 10,
      "type": "VEC3",
      "min": [
        755.29077,
        -0.01062,
        -181.31531
      ],
      "max": [
        755.47827,
        2.64527,
        -179.7661
      ]
    },
    {
      "bufferView": 2,
      "byteOffset": 41424,
      "componentType": 5126,
      "count": 10,
      "type": "VEC3"
    },
    {
      "bufferView": 3,
      "byteOffset": 27616,
      "componentType": 5126,
      "count": 10,
      "type": "VEC2"
    },
    {
      "bufferView": 0,
      "byteOffset": 26316,
      "componentType": 5125,
      "count": 12,
      "type": "SCALAR"
    }
  ],
  "materials": [
    {
      "pbrMetallicRoughness": {
        "baseColorFactor": [
          1.0,
          1.0,
          1.0,
          1.0
        ],
        "roughnessFactor": 0.0,
        "metallicFactor": 0.0,
        "baseColorTexture": {
          "index": 0
        }
      },
      "emissiveFactor": [
        0.0,
        0.0,
        0.0
      ]
    },
    {
      "pbrMetallicRoughness": {
        "baseColorFactor": [
          1.0,
          1.0,
          1.0,
          1.0
        ],
        "roughnessFactor": 0.0,
        "metallicFactor": 0.0,
        "baseColorTexture": {
          "index": 0
        }
      },
      "emissiveFactor": [
        0.0,
        0.0,
        0.0
      ],
      "emissiveTexture": {
        "index": 1
      }
    },
    {
      "pbrMetallicRoughness": {
        "baseColorFactor": [
          1.0,
          1.0,
          1.0,
          1.0
        ],
        "roughnessFactor": 0.0,
        "metallicFactor": 0.0,
        "baseColorTexture": {
          "index": 0
        }
      },
      "emissiveFactor": [
        0.0,
        0.0,
        0.0
      ]
    },
    {
      "pbrMetallicRoughness": {
        "baseColorFactor": [
          1.0,
          1.0,
          1.0,
          1.0
        ],
        "roughnessFactor": 0.0,
        "metallicFactor": 0.0,
        "baseColorTexture": {
          "index": 2
        }
      },
      "emissiveFactor": [
        0.0,
        0.0,
        0.0
      ],
      "emissiveTexture": {
        "index": 3
      }
    },
    {
      "pbrMetallicRoughness": {
        "baseColorFactor": [
          1.0,
          1.0,
          1.0,
          1.0
        ],
        "roughnessFactor": 0.0,
        "metallicFactor": 0.0,
        "baseColorTexture": {
          "index": 4
        }
      },
      "emissiveFactor": [
        0.0,
        0.0,
        0.0
      ],
      "emissiveTexture": {
        "index": 5
      }
    },
    {
      "pbrMetallicRoughness": {
        "baseColorFactor": [
          1.0,
          1.0,
          1.0,
          1.0
        ],
        "roughnessFactor": 0.0,
        "metallicFactor": 0.0,
        "baseColorTexture": {
          "index": 6
        }
      },
      "emissiveFactor": [
        0.0,
        0.0,
        0.0
      ],
      "emissiveTexture": {
        "index": 7
      }
    },
    {
      "pbrMetallicRoughness": {
        "baseColorFactor": [
          1.0,
          1.0,
          1.0,
          1.0
        ],
        "roughnessFactor": 0.0,
        "metallicFactor": 0.0,
        "baseColorTexture": {
          "index": 8
        }
      },
      "emissiveFactor": [
        0.0,
        0.0,
        0.0
      ],
      "emissiveTexture": {
        "index": 9
      }
    },
    {
      "pbrMetallicRoughness": {
        "baseColorFactor": [
          1.0,
          1.0,
          1.0,
          1.0
        ],
        "roughnessFactor": 0.0,
        "metallicFactor": 0.0,
        "baseColorTexture": {
          "index": 10
        }
      },
      "emissiveFactor": [
        0.0,
        0.0,
        0.0
      ],
      "emissiveTexture": {
        "index": 11
      }
    },
    {
      "pbrMetallicRoughness": {
        "baseColorFactor": [
          1.0,
          1.0,
          1.0,
          1.0
        ],
        "roughnessFactor": 0.0,
        "metallicFactor": 0.0,
        "baseColorTexture": {
          "index": 12
        }
      },
      "emissiveFactor": [
        0.0,
        0.0,
        0.0
      ],
      "emissiveTexture": {
        "index": 13
      }
    },
    {
      "pbrMetallicRoughness": {
        "baseColorFactor": [
          1.0,
          1.0,
          1.0,
          1.0
        ],
        "roughnessFactor": 0.0,
        "metallicFactor": 0.0,
        "baseColorTexture": {
          "index": 14
        }
      },
      "emissiveFactor": [
        0.0,
        0.0,
        0.0
      ],
      "emissiveTexture": {
        "index": 15
      }
    },
    {
      "pbrMetallicRoughness": {
        "baseColorFactor": [
          1.0,
          1.0,
          1.0,
          1.0
        ],
        "roughnessFactor": 0.0,
        "metallicFactor": 0.0,
        "baseColorTexture": {
          "index": 16
        }
      },
      "emissiveFactor": [
        0.0,
        0.0,
        0.0
      ]
    },
    {
      "pbrMetallicRoughness": {
        "baseColorFactor": [
          1.0,
          1.0,
          1.0,
          1.0
        ],
        "roughnessFactor": 0.0,
        "metallicFactor": 0.0,
        "baseColorTexture": {
          "index": 17
        }
      },
      "emissiveFactor": [
        0.0,
        0.0,
        0.0
      ]
    },
    {
      "pbrMetallicRoughness": {
        "baseColorFactor": [
          1.0,
          1.0,
          1.0,
          1.0
        ],
        "roughnessFactor": 0.0,
        "metallicFactor": 0.0,
        "baseColorTexture": {
          "index": 18
        }
      },
      "emissiveFactor": [
        0.0,
        0.0,
        0.0
      ],
      "emissiveTexture": {
        "index": 19
      }
    }
  ],
  "textures": [
    {
      "source": 0,
      "name": "patio1objetoscarga_0"
    },
    {
      "source": 1,
      "name": "patio1objetoscarga_0_lm"
    },
    {
      "source": 2,
      "name": "patio1objetoscarga_1"
    },
    {
      "source": 3,
      "name": "patio1objetoscarga_1_lm"
    },
    {
      "source": 4,
      "name": "patio1objetoscarga_concretoescurocarga"
    },
    {
      "source": 5,
      "name": "patio1objetoscarga_concretoescurocarga_night"
    },
    {
      "source": 6,
      "name": "patio1objetoscarga_fachadametalcarga"
    },
    {
      "source": 7,
      "name": "patio1objetoscarga_fachadametalcarga_night"
    },
    {
      "source": 8,
      "name": "patio1objetoscarga_gollogcarga"
    },
    {
      "source": 9,
      "name": "patio1objetoscarga_gollogcarga_night"
    },
    {
      "source": 10,
      "name": "patio1objetoscarga_musgobrancocarga"
    },
    {
      "source": 11,
      "name": "patio1objetoscarga_musgobrancocarga_night"
    },
    {
      "source": 12,
      "name": "patio1objetoscarga_sketchy_brick_multi"
    },
    {
      "source": 13,
      "name": "patio1objetoscarga_sketchy_brick_multi_night"
    },
    {
      "source": 14,
      "name": "patio1objetoscarga_sombrabrancacarga"
    },
    {
      "source": 15,
      "name": "patio1objetoscarga_sombrabrancacarga_night"
    },
    {
      "source": 16,
      "name": "patio1objetoscarga_telhadomanuten__o"
    },
    {
      "source": 17,
      "name": "patio1objetoscarga_tetometalmanuten__ogol"
    },
    {
      "source": 18,
      "name": "patio1objetoscarga_tijoloscarga"
    },
    {
      "source": 19,
      "name": "patio1objetoscarga_tijoloscarga_night"
    }
  ],
  "images": [
    {
      "uri": "patio1objetoscarga_0.dds"
    },
    {
      "uri": "patio1objetoscarga_0_lm.dds"
    },
    {
      "uri": "patio1objetoscarga_1.dds"
    },
    {
      "uri": "patio1objetoscarga_1_lm.dds"
    },
    {
      "uri": "patio1objetoscarga_concretoescurocarga.dds"
    },
    {
      "uri": "patio1objetoscarga_concretoescurocarga_night.dds"
    },
    {
      "uri": "patio1objetoscarga_fachadametalcarga.dds"
    },
    {
      "uri": "patio1objetoscarga_fachadametalcarga_night.dds"
    },
    {
      "uri": "patio1objetoscarga_gollogcarga.dds"
    },
    {
      "uri": "patio1objetoscarga_gollogcarga_night.dds"
    },
    {
      "uri": "patio1objetoscarga_musgobrancocarga.dds"
    },
    {
      "uri": "patio1objetoscarga_musgobrancocarga_night.dds"
    },
    {
      "uri": "patio1objetoscarga_sketchy_brick_multi.dds"
    },
    {
      "uri": "patio1objetoscarga_sketchy_brick_multi_night.dds"
    },
    {
      "uri": "patio1objetoscarga_sombrabrancacarga.dds"
    },
    {
      "uri": "patio1objetoscarga_sombrabrancacarga_night.dds"
    },
    {
      "uri": "patio1objetoscarga_telhadomanuten__o.dds"
    },
    {
      "uri": "patio1objetoscarga_tetometalmanuten__ogol.dds"
    },
    {
      "uri": "patio1objetoscarga_tijoloscarga.dds"
    },
    {
      "uri": "patio1objetoscarga_tijoloscarga_night.dds"
    }
  ],
  "bufferViews": [
    {
      "buffer": 0,
      "byteOffset": 0,
      "byteLength": 26364
    },
    {
      "buffer": 0,
      "byteOffset": 26364,
      "byteLength": 41544
    },
    {
      "buffer": 0,
      "byteOffset": 67908,
      "byteLength": 41544
    },
    {
      "buffer": 0,
      "byteOffset": 109452,
      "byteLength": 27696
    }
  ],
  "buffers": [
    {
      "byteLength": 137148,
      "uri": "Patio1ObjetosCarga.bin"
    }
  ]
}