{"accessors":[{"bufferView":0,"componentType":5126,"count":51,"min":[-0.40151000022888186,0.0,-14.358220100402832],"max":[17.080039978027345,4.35768985748291,-0.4231500029563904],"type":"VEC3","name":"part000_vertices#0_POSITION"},{"bufferView":0,"byteOffset":12,"componentType":5120,"count":51,"type":"VEC4","name":"part000_vertices#0_TANGENT"},{"bufferView":0,"byteOffset":16,"componentType":5120,"count":51,"type":"VEC4","name":"part000_vertices#0_NORMAL"},{"bufferView":0,"byteOffset":20,"componentType":5122,"count":51,"type":"VEC2","name":"part000_vertices#0_TEXCOORD_0"},{"bufferView":0,"byteOffset":24,"componentType":5122,"count":51,"type":"VEC2","name":"part000_vertices#0_TEXCOORD_1"},{"bufferView":0,"byteOffset":28,"componentType":5123,"count":51,"type":"VEC4","name":"part000_vertices#0_COLOR_0"},{"bufferView":1,"componentType":5123,"count":129,"type":"SCALAR","name":"part000_indices#0"},{"bufferView":0,"byteOffset":1836,"componentType":5126,"count":240,"min":[-0.40151000022888186,0.0,-14.412199974060059],"max":[17.080039978027345,6.633930206298828,-0.356469988822937],"type":"VEC3","name":"part001_vertices#0_POSITION"},{"bufferView":0,"byteOffset":1848,"componentType":5120,"count":240,"type":"VEC4","name":"part001_vertices#0_TANGENT"},{"bufferView":0,"byteOffset":1852,"componentType":5120,"count":240,"type":"VEC4","name":"part001_vertices#0_NORMAL"},{"bufferView":0,"byteOffset":1856,"componentType":5122,"count":240,"type":"VEC2","name":"part001_vertices#0_TEXCOORD_0"},{"bufferView":0,"byteOffset":1860,"componentType":5122,"count":240,"type":"VEC2","name":"part001_vertices#0_TEXCOORD_1"},{"bufferView":0,"byteOffset":1864,"componentType":5123,"count":240,"type":"VEC4","name":"part001_vertices#0_COLOR_0"},{"bufferView":1,"byteOffset":258,"componentType":5123,"count":408,"type":"SCALAR","name":"part001_indices#0"},{"bufferView":0,"byteOffset":10476,"componentType":5126,"count":382,"min":[1.9156999588012696,0.0,-14.412199974060059],"max":[17.555240631103517,6.633930206298828,-0.356469988822937],"type":"VEC3","name":"part002_vertices#0_POSITION"},{"bufferView":0,"byteOffset":10488,"componentType":5120,"count":382,"type":"VEC4","name":"part002_vertices#0_TANGENT"},{"bufferView":0,"byteOffset":10492,"componentType":5120,"count":382,"type":"VEC4","name":"part002_vertices#0_NORMAL"},{"bufferView":0,"byteOffset":10496,"componentType":5122,"count":382,"type":"VEC2","name":"part002_vertices#0_TEXCOORD_0"},{"bufferView":0,"byteOffset":10500,"componentType":5122,"count":382,"type":"VEC2","name":"part002_vertices#0_TEXCOORD_1"},{"bufferView":0,"byteOffset":10504,"componentType":5123,"count":382,"type":"VEC4","name":"part002_vertices#0_COLOR_0"},{"bufferView":1,"byteOffset":1074,"componentType":5123,"count":1050,"type":"SCALAR","name":"part002_indices#0"},{"bufferView":0,"byteOffset":24228,"componentType":5126,"count":3084,"min":[-0.4667699933052063,3.2906301021575929,-10.191670417785645],"max":[2.257550001144409,3.3652400970458986,-2.275439977645874],"type":"VEC3","name":"part003_vertices#0_POSITION"},{"bufferView":0,"byteOffset":24240,"componentType":5120,"count":3084,"type":"VEC4","name":"part003_vertices#0_TANGENT"},{"bufferView":0,"byteOffset":24244,"componentType":5120,"count":3084,"type":"VEC4","name":"part003_vertices#0_NORMAL"},{"bufferView":0,"byteOffset":24248,"componentType":5122,"count":3084,"type":"VEC2","name":"part003_vertices#0_TEXCOORD_0"},{"bufferView":0,"byteOffset":24252,"componentType":5122,"count":3084,"type":"VEC2","name":"part003_vertices#0_TEXCOORD_1"},{"bufferView":0,"byteOffset":24256,"componentType":5123,"count":3084,"type":"VEC4","name":"part003_vertices#0_COLOR_0"},{"bufferView":1,"byteOffset":3174,"componentType":5123,"count":8604,"type":"SCALAR","name":"part003_indices#0"},{"bufferView":0,"byteOffset":135252,"componentType":5126,"count":4,"min":[2.755350112915039,0.0,-0.5072799921035767],"max":[16.66027069091797,4.029069900512695,-0.5072799921035767],"type":"VEC3","name":"part004_vertices#0_POSITION"},{"bufferView":0,"byteOffset":135264,"componentType":5120,"count":4,"type":"VEC4","name":"part004_vertices#0_TANGENT"},{"bufferView":0,"byteOffset":135268,"componentType":5120,"count":4,"type":"VEC4","name":"part004_vertices#0_NORMAL"},{"bufferView":0,"byteOffset":135272,"componentType":5122,"count":4,"type":"VEC2","name":"part004_vertices#0_TEXCOORD_0"},{"bufferView":0,"byteOffset":135276,"componentType":5122,"count":4,"type":"VEC2","name":"part004_vertices#0_TEXCOORD_1"},{"bufferView":0,"byteOffset":135280,"componentType":5123,"count":4,"type":"VEC4","name":"part004_vertices#0_COLOR_0"},{"bufferView":1,"byteOffset":20382,"componentType":5123,"count":6,"type":"SCALAR","name":"part004_indices#0"},{"bufferView":0,"byteOffset":135396,"componentType":5126,"count":10800,"min":[1.9828499555587769,4.521200180053711,-14.339010238647461],"max":[17.489360809326173,6.5647501945495609,-0.5011500120162964],"type":"VEC3","name":"part005_vertices#0_POSITION"},{"bufferView":0,"byteOffset":135408,"componentType":5120,"count":10800,"type":"VEC4","name":"part005_vertices#0_TANGENT"},{"bufferView":0,"byteOffset":135412,"componentType":5120,"count":10800,"type":"VEC4","name":"part005_vertices#0_NORMAL"},{"bufferView":0,"byteOffset":135416,"componentType":5122,"count":10800,"type":"VEC2","name":"part005_vertices#0_TEXCOORD_0"},{"bufferView":0,"byteOffset":135420,"componentType":5122,"count":10800,"type":"VEC2","name":"part005_vertices#0_TEXCOORD_1"},{"bufferView":0,"byteOffset":135424,"componentType":5123,"count":10800,"type":"VEC4","name":"part005_vertices#0_COLOR_0"},{"bufferView":1,"byteOffset":20394,"componentType":5123,"count":30000,"type":"SCALAR","name":"part005_indices#0"},{"bufferView":0,"byteOffset":524196,"componentType":5126,"count":28484,"min":[0.8561999797821045,3.3550100326538088,-9.617170333862305],"max":[1.9454799890518189,4.270669937133789,-6.586329936981201],"type":"VEC3","name":"part006_vertices#0_POSITION"},{"bufferView":0,"byteOffset":524208,"componentType":5120,"count":28484,"type":"VEC4","name":"part006_vertices#0_TANGENT"},{"bufferView":0,"byteOffset":524212,"componentType":5120,"count":28484,"type":"VEC4","name":"part006_vertices#0_NORMAL"},{"bufferView":0,"byteOffset":524216,"componentType":5122,"count":28484,"type":"VEC2","name":"part006_vertices#0_TEXCOORD_0"},{"bufferView":0,"byteOffset":524220,"componentType":5122,"count":28484,"type":"VEC2","name":"part006_vertices#0_TEXCOORD_1"},{"bufferView":0,"byteOffset":524224,"componentType":5123,"count":28484,"type":"VEC4","name":"part006_vertices#0_COLOR_0"},{"bufferView":1,"byteOffset":80394,"componentType":5123,"count":45468,"type":"SCALAR","name":"part006_indices#0"},{"bufferView":0,"byteOffset":1549620,"componentType":5126,"count":156,"min":[-0.41470998525619509,2.2765700817108156,-9.734129905700684],"max":[-0.3271099925041199,2.7530200481414797,-2.781399965286255],"type":"VEC3","name":"part007_vertices#0_POSITION"},{"bufferView":0,"byteOffset":1549632,"componentType":5120,"count":156,"type":"VEC4","name":"part007_vertices#0_TANGENT"},{"bufferView":0,"byteOffset":1549636,"componentType":5120,"count":156,"type":"VEC4","name":"part007_vertices#0_NORMAL"},{"bufferView":0,"byteOffset":1549640,"componentType":5122,"count":156,"type":"VEC2","name":"part007_vertices#0_TEXCOORD_0"},{"bufferView":0,"byteOffset":1549644,"componentType":5122,"count":156,"type":"VEC2","name":"part007_vertices#0_TEXCOORD_1"},{"bufferView":0,"byteOffset":1549648,"componentType":5123,"count":156,"type":"VEC4","name":"part007_vertices#0_COLOR_0"},{"bufferView":1,"byteOffset":171330,"componentType":5123,"count":234,"type":"SCALAR","name":"part007_indices#0"},{"bufferView":0,"byteOffset":1555236,"componentType":5126,"count":618,"min":[-0.41470998525619509,2.2765700817108156,-9.734129905700684],"max":[-0.3271099925041199,3.1242899894714357,-2.781399965286255],"type":"VEC3","name":"part008_vertices#0_POSITION"},{"bufferView":0,"byteOffset":1555248,"componentType":5120,"count":618,"type":"VEC4","name":"part008_vertices#0_TANGENT"},{"bufferView":0,"byteOffset":1555252,"componentType":5120,"count":618,"type":"VEC4","name":"part008_vertices#0_NORMAL"},{"bufferView":0,"byteOffset":1555256,"componentType":5122,"count":618,"type":"VEC2","name":"part008_vertices#0_TEXCOORD_0"},{"bufferView":0,"byteOffset":1555260,"componentType":5122,"count":618,"type":"VEC2","name":"part008_vertices#0_TEXCOORD_1"},{"bufferView":0,"byteOffset":1555264,"componentType":5123,"count":618,"type":"VEC4","name":"part008_vertices#0_COLOR_0"},{"bufferView":1,"byteOffset":171798,"componentType":5123,"count":1170,"type":"SCALAR","name":"part008_indices#0"},{"bufferView":0,"byteOffset":1577484,"componentType":5126,"count":48,"min":[-0.3884499967098236,2.312659978866577,-9.699950218200684],"max":[-0.36430999636650088,3.084059953689575,-2.809849977493286],"type":"VEC3","name":"part009_vertices#0_POSITION"},{"bufferView":0,"byteOffset":1577496,"componentType":5120,"count":48,"type":"VEC4","name":"part009_vertices#0_TANGENT"},{"bufferView":0,"byteOffset":1577500,"componentType":5120,"count":48,"type":"VEC4","name":"part009_vertices#0_NORMAL"},{"bufferView":0,"byteOffset":1577504,"componentType":5122,"count":48,"type":"VEC2","name":"part009_vertices#0_TEXCOORD_0"},{"bufferView":0,"byteOffset":1577508,"componentType":5122,"count":48,"type":"VEC2","name":"part009_vertices#0_TEXCOORD_1"},{"bufferView":0,"byteOffset":1577512,"componentType":5123,"count":48,"type":"VEC4","name":"part009_vertices#0_COLOR_0"},{"bufferView":1,"byteOffset":174138,"componentType":5123,"count":72,"type":"SCALAR","name":"part009_indices#0"},{"bufferView":0,"byteOffset":1579212,"componentType":5126,"count":21448,"min":[-0.4121899902820587,2.302949905395508,-8.336919784545899],"max":[-0.390639990568161,2.339900016784668,-2.7862699031829836],"type":"VEC3","name":"part010_vertices#0_POSITION"},{"bufferView":0,"byteOffset":1579224,"componentType":5120,"count":21448,"type":"VEC4","name":"part010_vertices#0_TANGENT"},{"bufferView":0,"byteOffset":1579228,"componentType":5120,"count":21448,"type":"VEC4","name":"part010_vertices#0_NORMAL"},{"bufferView":0,"byteOffset":1579232,"componentType":5122,"count":21448,"type":"VEC2","name":"part010_vertices#0_TEXCOORD_0"},{"bufferView":0,"byteOffset":1579236,"componentType":5122,"count":21448,"type":"VEC2","name":"part010_vertices#0_TEXCOORD_1"},{"bufferView":0,"byteOffset":1579240,"componentType":5123,"count":21448,"type":"VEC4","name":"part010_vertices#0_COLOR_0"},{"bufferView":1,"byteOffset":174282,"componentType":5123,"count":58548,"type":"SCALAR","name":"part010_indices#0"},{"bufferView":0,"byteOffset":2351340,"componentType":5126,"count":216,"min":[-0.3775100111961365,2.312659978866577,-9.356280326843262],"max":[-0.3550100028514862,3.084059953689575,-3.1220099925994875],"type":"VEC3","name":"part011_vertices#0_POSITION"},{"bufferView":0,"byteOffset":2351352,"componentType":5120,"count":216,"type":"VEC4","name":"part011_vertices#0_TANGENT"},{"bufferView":0,"byteOffset":2351356,"componentType":5120,"count":216,"type":"VEC4","name":"part011_vertices#0_NORMAL"},{"bufferView":0,"byteOffset":2351360,"componentType":5122,"count":216,"type":"VEC2","name":"part011_vertices#0_TEXCOORD_0"},{"bufferView":0,"byteOffset":2351364,"componentType":5122,"count":216,"type":"VEC2","name":"part011_vertices#0_TEXCOORD_1"},{"bufferView":0,"byteOffset":2351368,"componentType":5123,"count":216,"type":"VEC4","name":"part011_vertices#0_COLOR_0"},{"bufferView":1,"byteOffset":291378,"componentType":5123,"count":468,"type":"SCALAR","name":"part011_indices#0"},{"bufferView":0,"byteOffset":2359116,"componentType":5126,"count":96,"min":[-0.38477998971939089,2.312659978866577,-9.356280326843262],"max":[-0.3689900040626526,3.084059953689575,-3.1220099925994875],"type":"VEC3","name":"part012_vertices#0_POSITION"},{"bufferView":0,"byteOffset":2359128,"componentType":5120,"count":96,"type":"VEC4","name":"part012_vertices#0_TANGENT"},{"bufferView":0,"byteOffset":2359132,"componentType":5120,"count":96,"type":"VEC4","name":"part012_vertices#0_NORMAL"},{"bufferView":0,"byteOffset":2359136,"componentType":5122,"count":96,"type":"VEC2","name":"part012_vertices#0_TEXCOORD_0"},{"bufferView":0,"byteOffset":2359140,"componentType":5122,"count":96,"type":"VEC2","name":"part012_vertices#0_TEXCOORD_1"},{"bufferView":0,"byteOffset":2359144,"componentType":5123,"count":96,"type":"VEC4","name":"part012_vertices#0_COLOR_0"},{"bufferView":1,"byteOffset":292314,"componentType":5123,"count":324,"type":"SCALAR","name":"part012_indices#0"},{"bufferView":0,"byteOffset":2362572,"componentType":5126,"count":30,"min":[-0.3364199995994568,2.2914600372314455,-9.72544002532959],"max":[-0.3364199995994568,3.0934500694274904,-2.791520118713379],"type":"VEC3","name":"part013_vertices#0_POSITION"},{"bufferView":0,"byteOffset":2362584,"componentType":5120,"count":30,"type":"VEC4","name":"part013_vertices#0_TANGENT"},{"bufferView":0,"byteOffset":2362588,"componentType":5120,"count":30,"type":"VEC4","name":"part013_vertices#0_NORMAL"},{"bufferView":0,"byteOffset":2362592,"componentType":5122,"count":30,"type":"VEC2","name":"part013_vertices#0_TEXCOORD_0"},{"bufferView":0,"byteOffset":2362596,"componentType":5122,"count":30,"type":"VEC2","name":"part013_vertices#0_TEXCOORD_1"},{"bufferView":0,"byteOffset":2362600,"componentType":5123,"count":30,"type":"VEC4","name":"part013_vertices#0_COLOR_0"},{"bufferView":1,"byteOffset":292962,"componentType":5123,"count":54,"type":"SCALAR","name":"part013_indices#0"}],"asset":{"generator":"ModelConverterX","version":"2.0","extensions":{"ASOBO_asset_optimized":{"BoundingBoxMax":[17.555240631103517,6.633930206298828,-0.356469988822937],"BoundingBoxMin":[-0.4667699933052063,0.0,-14.412199974060059],"MajorVersion":4,"MinorVersion":2}}},"bufferViews":[{"buffer":0,"byteLength":2363652,"byteStride":36,"byteOffset":124,"target":34962,"name":"BufferViewVertexND"},{"buffer":0,"byteLength":293070,"byteOffset":2363826,"target":34963,"name":"BufferViewIndex"}],"extensionsUsed":["MSFT_texture_dds","ASOBO_asset_optimized"],"extensionsRequired":["MSFT_texture_dds"],"materials":[{"name":"glTF_Material","pbrMetallicRoughness":{"baseColorFactor":[0.5019609928131104,0.5019609928131104,0.5019609928131104,0.5019609928131104],"metallicFactor":0.0}},{"name":"glTF_Materialx","pbrMetallicRoughness":{"baseColorFactor":[0.4745100140571594,0.6039220094680786,0.929412007331848,0.549019992351532],"metallicFactor":0.0}},{"name":"glTF_Materialxx","pbrMetallicRoughness":{"baseColorFactor":[0.11764699965715409,0.11764699965715409,0.11764699965715409,1.0],"metallicFactor":0.0}},{"name":"glTF_Materialxxx","pbrMetallicRoughness":{"baseColorFactor":[0.22745099663734437,0.22745099663734437,0.22745099663734437,1.0],"metallicFactor":0.0}},{"name":"glTF_Materialxxxx","pbrMetallicRoughness":{"baseColorFactor":[0.44705900549888608,0.44705900549888608,0.44705900549888608,1.0],"metallicFactor":0.0}},{"name":"glTF_Materialxxxxx","pbrMetallicRoughness":{"baseColorFactor":[0.6666669845581055,0.6666669845581055,0.6666669845581055,1.0],"metallicFactor":0.0}},{"name":"glTF_Materialxxxxxx","pbrMetallicRoughness":{"metallicFactor":0.0}},{"name":"glTF_Materialxxxxxxx","pbrMetallicRoughness":{"metallicFactor":0.0,"baseColorTexture":{"index":0}}},{"name":"glTF_Materialxxxxxxxx","pbrMetallicRoughness":{"metallicFactor":0.0,"baseColorTexture":{"index":1}}},{"name":"glTF_Materialxxxxxxxxx","pbrMetallicRoughness":{"metallicFactor":0.0,"baseColorTexture":{"index":2}}},{"name":"glTF_Materialxxxxxxxxxx","emissiveTexture":{"index":4},"emissiveFactor":[1.0,1.0,1.0],"pbrMetallicRoughness":{"metallicFactor":0.0,"baseColorTexture":{"index":3}}},{"name":"glTF_Materialxxxxxxxxxxx","emissiveTexture":{"index":6},"emissiveFactor":[1.0,1.0,1.0],"pbrMetallicRoughness":{"metallicFactor":0.0,"baseColorTexture":{"index":5}}},{"name":"glTF_Materialxxxxxxxxxxxx","emissiveTexture":{"index":8},"emissiveFactor":[1.0,1.0,1.0],"pbrMetallicRoughness":{"metallicFactor":0.0,"baseColorTexture":{"index":7}}},{"name":"glTF_Materialxxxxxxxxxxxxx","pbrMetallicRoughness":{"metallicFactor":0.0,"baseColorTexture":{"index":9}}}],"meshes":[{"primitives":[{"attributes":{"COLOR_0":5,"NORMAL":2,"POSITION":0,"TANGENT":1,"TEXCOORD_0":3,"TEXCOORD_1":4},"indices":6,"material":12,"mode":4,"extras":{"ASOBO_primitive":{"PrimitiveCount":43,"VertexType":"VTX","VertexVersion":2}}}],"name":"part000"},{"primitives":[{"attributes":{"COLOR_0":12,"NORMAL":9,"POSITION":7,"TANGENT":8,"TEXCOORD_0":10,"TEXCOORD_1":11},"indices":13,"material":6,"mode":4,"extras":{"ASOBO_primitive":{"PrimitiveCount":136,"VertexType":"VTX","VertexVersion":2}}}],"name":"part001"},{"primitives":[{"attributes":{"COLOR_0":19,"NORMAL":16,"POSITION":14,"TANGENT":15,"TEXCOORD_0":17,"TEXCOORD_1":18},"indices":20,"material":11,"mode":4,"extras":{"ASOBO_primitive":{"PrimitiveCount":350,"VertexType":"VTX","VertexVersion":2}}}],"name":"part002"},{"primitives":[{"attributes":{"COLOR_0":26,"NORMAL":23,"POSITION":21,"TANGENT":22,"TEXCOORD_0":24,"TEXCOORD_1":25},"indices":27,"material":4,"mode":4,"extras":{"ASOBO_primitive":{"PrimitiveCount":2868,"VertexType":"VTX","VertexVersion":2}}}],"name":"part003"},{"primitives":[{"attributes":{"COLOR_0":33,"NORMAL":30,"POSITION":28,"TANGENT":29,"TEXCOORD_0":31,"TEXCOORD_1":32},"indices":34,"material":10,"mode":4,"extras":{"ASOBO_primitive":{"PrimitiveCount":2,"VertexType":"VTX","VertexVersion":2}}}],"name":"part004"},{"primitives":[{"attributes":{"COLOR_0":40,"NORMAL":37,"POSITION":35,"TANGENT":36,"TEXCOORD_0":38,"TEXCOORD_1":39},"indices":41,"material":5,"mode":4,"extras":{"ASOBO_primitive":{"PrimitiveCount":10000,"VertexType":"VTX","VertexVersion":2}}}],"name":"part005"},{"primitives":[{"attributes":{"COLOR_0":47,"NORMAL":44,"POSITION":42,"TANGENT":43,"TEXCOORD_0":45,"TEXCOORD_1":46},"indices":48,"material":9,"mode":4,"extras":{"ASOBO_primitive":{"PrimitiveCount":15156,"VertexType":"VTX","VertexVersion":2}}}],"name":"part006"},{"primitives":[{"attributes":{"COLOR_0":54,"NORMAL":51,"POSITION":49,"TANGENT":50,"TEXCOORD_0":52,"TEXCOORD_1":53},"indices":55,"material":2,"mode":4,"extras":{"ASOBO_primitive":{"PrimitiveCount":78,"VertexType":"VTX","VertexVersion":2}}}],"name":"part007"},{"primitives":[{"attributes":{"COLOR_0":61,"NORMAL":58,"POSITION":56,"TANGENT":57,"TEXCOORD_0":59,"TEXCOORD_1":60},"indices":62,"material":8,"mode":4,"extras":{"ASOBO_primitive":{"PrimitiveCount":390,"VertexType":"VTX","VertexVersion":2}}}],"name":"part008"},{"primitives":[{"attributes":{"COLOR_0":68,"NORMAL":65,"POSITION":63,"TANGENT":64,"TEXCOORD_0":66,"TEXCOORD_1":67},"indices":69,"material":7,"mode":4,"extras":{"ASOBO_primitive":{"PrimitiveCount":24,"VertexType":"VTX","VertexVersion":2}}}],"name":"part009"},{"primitives":[{"attributes":{"COLOR_0":75,"NORMAL":72,"POSITION":70,"TANGENT":71,"TEXCOORD_0":73,"TEXCOORD_1":74},"indices":76,"material":3,"mode":4,"extras":{"ASOBO_primitive":{"PrimitiveCount":19516,"VertexType":"VTX","VertexVersion":2}}}],"name":"part010"},{"primitives":[{"attributes":{"COLOR_0":82,"NORMAL":79,"POSITION":77,"TANGENT":78,"TEXCOORD_0":80,"TEXCOORD_1":81},"indices":83,"material":13,"mode":4,"extras":{"ASOBO_primitive":{"PrimitiveCount":156,"VertexType":"VTX","VertexVersion":2}}}],"name":"part011"},{"primitives":[{"attributes":{"COLOR_0":89,"NORMAL":86,"POSITION":84,"TANGENT":85,"TEXCOORD_0":87,"TEXCOORD_1":88},"indices":90,"material":1,"mode":4,"extras":{"ASOBO_primitive":{"PrimitiveCount":108,"VertexType":"VTX","VertexVersion":2}}}],"name":"part012"},{"primitives":[{"attributes":{"COLOR_0":96,"NORMAL":93,"POSITION":91,"TANGENT":92,"TEXCOORD_0":94,"TEXCOORD_1":95},"indices":97,"material":0,"mode":4,"extras":{"ASOBO_primitive":{"PrimitiveCount":18,"VertexType":"VTX","VertexVersion":2}}}],"name":"part013"}],"nodes":[{"name":"node0","children":[1,2,3,4,5,6,7,8,9,10,11,12,13,14]},{"mesh":0,"name":"node1"},{"mesh":1,"name":"node2"},{"mesh":2,"name":"node3"},{"mesh":3,"name":"node4"},{"mesh":4,"name":"node5"},{"mesh":5,"name":"node6"},{"mesh":6,"name":"node7"},{"mesh":7,"name":"node8"},{"mesh":8,"name":"node9"},{"mesh":9,"name":"node10"},{"mesh":10,"name":"node11"},{"mesh":11,"name":"node12"},{"mesh":12,"name":"node13"},{"mesh":13,"name":"node14"}],"scene":0,"scenes":[{"nodes":[0]}],"textures":[{"extensions":{"MSFT_texture_dds":{"source":0}}},{"extensions":{"MSFT_texture_dds":{"source":1}}},{"extensions":{"MSFT_texture_dds":{"source":2}}},{"extensions":{"MSFT_texture_dds":{"source":3}}},{"extensions":{"MSFT_texture_dds":{"source":4}}},{"extensions":{"MSFT_texture_dds":{"source":5}}},{"extensions":{"MSFT_texture_dds":{"source":6}}},{"extensions":{"MSFT_texture_dds":{"source":7}}},{"extensions":{"MSFT_texture_dds":{"source":8}}},{"extensions":{"MSFT_texture_dds":{"source":9}}}],"buffers":[{"byteLength":2656896,"uri":"Hangar2.bin"}],"images":[{"uri":"HANGAR2_BLINDS_ROMAN_HOBBLED_BLUE.DDS.DDS","extras":"ASOBO_image_converted_meta"},{"uri":"HANGAR2_METAL_ROUGH.DDS.DDS","extras":"ASOBO_image_converted_meta"},{"uri":"HANGAR2_POLISHED_CONCRETE_OLD.DDS.DDS","extras":"ASOBO_image_converted_meta"},{"uri":"HANGAR2_TEXTRAPORTAHANGAR2.DDS.DDS","extras":"ASOBO_image_converted_meta"},{"uri":"HANGAR2_TEXTRAPORTAHANGAR2_NIGHT.DDS.DDS","extras":"ASOBO_image_converted_meta"},{"uri":"HANGAR2_TEXTURACONCRETOHANGAR2.DDS.DDS","extras":"ASOBO_image_converted_meta"},{"uri":"HANGAR2_TEXTURACONCRETOHANGAR2_NIGHT.DDS.DDS","extras":"ASOBO_image_converted_meta"},{"uri":"HANGAR2_TEXTURACONCRETOHANGAR2SOMBRA1.DDS.DDS","extras":"ASOBO_image_converted_meta"},{"uri":"HANGAR2_TEXTURACONCRETOHANGAR2SOMBRA1_NIGHT.DDS.DDS","extras":"ASOBO_image_converted_meta"},{"uri":"HANGAR2_TRANSLUCENT_GLASS_TINTED.DDS.DDS","extras":"ASOBO_image_converted_meta"}]}
