{
  "asset": {
    "version": "2.0",
    "generator": "ModelConverterX"
  },
  "extensionsUsed": [],
  "scene": 0,
  "scenes": [
    {
      "nodes": [
        0
      ]
    }
  ],
  "nodes": [
    {
      "name": "node0",
      "children": [
        1,
        2
      ]
    },
    {
      "name": "node1",
      "mesh": 0
    },
    {
      "name": "node2",
      "mesh": 1
    }
  ],
  "meshes": [
    {
      "primitives": [
        {
          "attributes": {
            "POSITION": 0,
            "NORMAL": 1,
            "TEXCOORD_0": 2
          },
          "indices": 3,
          "mode": 4,
          "material": 0
        }
      ],
      "name": "part000"
    },
    {
      "primitives": [
        {
          "attributes": {
            "POSITION": 4,
            "NORMAL": 5,
            "TEXCOORD_0": 6
          },
          "indices": 7,
          "mode": 4,
          "material": 1
        }
      ],
      "name": "part001"
    }
  ],
  "accessors": [
    {
      "bufferView": 1,
      "byteOffset": 0,
      "componentType": 5126,
      "count": 3235,
      "type": "VEC3",
      "min": [
        885.68433,
        0.0,
        -163.9679
      ],
      "max": [
        906.33173,
        2.66023,
        -150.6879
      ]
    },
    {
      "bufferView": 2,
      "byteOffset": 0,
      "componentType": 5126,
      "count": 3235,
      "type": "VEC3"
    },
    {
      "bufferView": 3,
      "byteOffset": 0,
      "componentType": 5126,
      "count": 3235,
      "type": "VEC2"
    },
    {
      "bufferView": 0,
      "byteOffset": 0,
      "componentType": 5125,
      "count": 6264,
      "type": "SCALAR"
    },
    {
      "bufferView": 1,
      "byteOffset": 38820,
      "componentType": 5126,
      "count": 44,
      "type": "VEC3",
      "min": [
        886.28851,
        0.0,
        -159.92349
      ],
      "max": [
        906.31158,
        0.18256,
        -150.62579
      ]
    },
    {
      "bufferView": 2,
      "byteOffset": 38820,
      "componentType": 5126,
      "count": 44,
      "type": "VEC3"
    },
    {
      "bufferView": 3,
      "byteOffset": 25880,
      "componentType": 5126,
      "count": 44,
      "type": "VEC2"
    },
    {
      "bufferView": 0,
      "byteOffset": 25056,
      "componentType": 5125,
      "count": 102,
      "type": "SCALAR"
    }
  ],
  "materials": [
    {
      "pbrMetallicRoughness": {
        "baseColorFactor": [
          1.0,
          1.0,
          1.0,
          1.0
        ],
        "roughnessFactor": 1.0,
        "metallicFactor": 0.0
      },
      "emissiveFactor": [
        0.0,
        0.0,
        0.0
      ]
    },
    {
      "pbrMetallicRoughness": {
        "baseColorFactor": [
          1.0,
          1.0,
          1.0,
          1.0
        ],
        "roughnessFactor": 1.0,
        "metallicFactor": 0.0,
        "baseColorTexture": {
          "index": 0
        }
      },
      "emissiveFactor": [
        0.0,
        0.0,
        0.0
      ]
    }
  ],
  "textures": [
    {
      "source": 0,
      "name": "patio1objetosgolcerca_sbcxconc4"
    }
  ],
  "images": [
    {
      "uri": "patio1objetosgolcerca_sbcxconc4.dds"
    }
  ],
  "bufferViews": [
    {
      "buffer": 0,
      "byteOffset": 0,
      "byteLength": 25464
    },
    {
      "buffer": 0,
      "byteOffset": 25464,
      "byteLength": 39348
    },
    {
      "buffer": 0,
      "byteOffset": 64812,
      "byteLength": 39348
    },
    {
      "buffer": 0,
      "byteOffset": 104160,
      "byteLength": 26232
    }
  ],
  "buffers": [
    {
      "byteLength": 130392,
      "uri": "Patio1ObjetosGolCerca.bin"
    }
  ]
}