{"accessors":[{"bufferView":0,"componentType":5126,"count":821,"min":[781.1497802734375,0.10845000296831131,-205.90609741210938],"max":[797.7667846679688,6.601160049438477,-194.89540100097657],"type":"VEC3","name":"part000_vertices#0_POSITION"},{"bufferView":0,"byteOffset":12,"componentType":5120,"count":821,"type":"VEC4","name":"part000_vertices#0_TANGENT"},{"bufferView":0,"byteOffset":16,"componentType":5120,"count":821,"type":"VEC4","name":"part000_vertices#0_NORMAL"},{"bufferView":0,"byteOffset":20,"componentType":5122,"count":821,"type":"VEC2","name":"part000_vertices#0_TEXCOORD_0"},{"bufferView":0,"byteOffset":24,"componentType":5122,"count":821,"type":"VEC2","name":"part000_vertices#0_TEXCOORD_1"},{"bufferView":0,"byteOffset":28,"componentType":5123,"count":821,"type":"VEC4","name":"part000_vertices#0_COLOR_0"},{"bufferView":1,"componentType":5123,"count":1449,"type":"SCALAR","name":"part000_indices#0"},{"bufferView":0,"byteOffset":29556,"componentType":5126,"count":1106,"min":[781.4172973632813,0.10845000296831131,-205.90609741210938],"max":[797.7667846679688,6.601160049438477,-195.32569885253907],"type":"VEC3","name":"part001_vertices#0_POSITION"},{"bufferView":0,"byteOffset":29568,"componentType":5120,"count":1106,"type":"VEC4","name":"part001_vertices#0_TANGENT"},{"bufferView":0,"byteOffset":29572,"componentType":5120,"count":1106,"type":"VEC4","name":"part001_vertices#0_NORMAL"},{"bufferView":0,"byteOffset":29576,"componentType":5122,"count":1106,"type":"VEC2","name":"part001_vertices#0_TEXCOORD_0"},{"bufferView":0,"byteOffset":29580,"componentType":5122,"count":1106,"type":"VEC2","name":"part001_vertices#0_TEXCOORD_1"},{"bufferView":0,"byteOffset":29584,"componentType":5123,"count":1106,"type":"VEC4","name":"part001_vertices#0_COLOR_0"},{"bufferView":1,"byteOffset":2898,"componentType":5123,"count":1929,"type":"SCALAR","name":"part001_indices#0"},{"bufferView":0,"byteOffset":69372,"componentType":5126,"count":34,"min":[781.4172973632813,4.5423197746276859,-205.90609741210938],"max":[797.5565795898438,6.167850017547607,-195.33450317382813],"type":"VEC3","name":"part002_vertices#0_POSITION"},{"bufferView":0,"byteOffset":69384,"componentType":5120,"count":34,"type":"VEC4","name":"part002_vertices#0_TANGENT"},{"bufferView":0,"byteOffset":69388,"componentType":5120,"count":34,"type":"VEC4","name":"part002_vertices#0_NORMAL"},{"bufferView":0,"byteOffset":69392,"componentType":5122,"count":34,"type":"VEC2","name":"part002_vertices#0_TEXCOORD_0"},{"bufferView":0,"byteOffset":69396,"componentType":5122,"count":34,"type":"VEC2","name":"part002_vertices#0_TEXCOORD_1"},{"bufferView":0,"byteOffset":69400,"componentType":5123,"count":34,"type":"VEC4","name":"part002_vertices#0_COLOR_0"},{"bufferView":1,"byteOffset":6756,"componentType":5123,"count":63,"type":"SCALAR","name":"part002_indices#0"},{"bufferView":0,"byteOffset":70596,"componentType":5126,"count":348,"min":[782.2393188476563,0.991890013217926,-202.13580322265626],"max":[797.7667846679688,4.847080230712891,-195.32569885253907],"type":"VEC3","name":"part003_vertices#0_POSITION"},{"bufferView":0,"byteOffset":70608,"componentType":5120,"count":348,"type":"VEC4","name":"part003_vertices#0_TANGENT"},{"bufferView":0,"byteOffset":70612,"componentType":5120,"count":348,"type":"VEC4","name":"part003_vertices#0_NORMAL"},{"bufferView":0,"byteOffset":70616,"componentType":5122,"count":348,"type":"VEC2","name":"part003_vertices#0_TEXCOORD_0"},{"bufferView":0,"byteOffset":70620,"componentType":5122,"count":348,"type":"VEC2","name":"part003_vertices#0_TEXCOORD_1"},{"bufferView":0,"byteOffset":70624,"componentType":5123,"count":348,"type":"VEC4","name":"part003_vertices#0_COLOR_0"},{"bufferView":1,"byteOffset":6882,"componentType":5123,"count":864,"type":"SCALAR","name":"part003_indices#0"},{"bufferView":0,"byteOffset":83124,"componentType":5126,"count":868,"min":[790.0308837890625,1.113919973373413,-201.54989624023438],"max":[797.7095947265625,4.847080230712891,-195.4477996826172],"type":"VEC3","name":"part004_vertices#0_POSITION"},{"bufferView":0,"byteOffset":83136,"componentType":5120,"count":868,"type":"VEC4","name":"part004_vertices#0_TANGENT"},{"bufferView":0,"byteOffset":83140,"componentType":5120,"count":868,"type":"VEC4","name":"part004_vertices#0_NORMAL"},{"bufferView":0,"byteOffset":83144,"componentType":5122,"count":868,"type":"VEC2","name":"part004_vertices#0_TEXCOORD_0"},{"bufferView":0,"byteOffset":83148,"componentType":5122,"count":868,"type":"VEC2","name":"part004_vertices#0_TEXCOORD_1"},{"bufferView":0,"byteOffset":83152,"componentType":5123,"count":868,"type":"VEC4","name":"part004_vertices#0_COLOR_0"},{"bufferView":1,"byteOffset":8610,"componentType":5123,"count":1530,"type":"SCALAR","name":"part004_indices#0"}],"asset":{"generator":"ModelConverterX","version":"2.0","extensions":{"ASOBO_asset_optimized":{"BoundingBoxMax":[797.7667846679688,6.601160049438477,-194.89540100097657],"BoundingBoxMin":[781.1497802734375,0.10845000296831131,-205.90609741210938],"MajorVersion":4,"MinorVersion":2}}},"bufferViews":[{"buffer":0,"byteLength":114372,"byteStride":36,"byteOffset":60,"target":34962,"name":"BufferViewVertexND"},{"buffer":0,"byteLength":11670,"byteOffset":114538,"target":34963,"name":"BufferViewIndex"}],"extensionsUsed":["MSFT_texture_dds","ASOBO_asset_optimized"],"extensionsRequired":["MSFT_texture_dds"],"materials":[{"name":"glTF_Material","pbrMetallicRoughness":{"baseColorFactor":[0.4117650091648102,0.4117650091648102,0.4117650091648102,1.0],"metallicFactor":0.0,"roughnessFactor":0.0}},{"name":"glTF_Materialx","pbrMetallicRoughness":{"baseColorFactor":[0.7764710187911987,0.7764710187911987,0.7764710187911987,1.0],"metallicFactor":0.0,"roughnessFactor":0.0}},{"name":"glTF_Materialxx","pbrMetallicRoughness":{"metallicFactor":0.0,"roughnessFactor":0.0}},{"name":"glTF_Materialxxx","emissiveTexture":{"index":1},"pbrMetallicRoughness":{"metallicFactor":0.0,"roughnessFactor":0.0,"baseColorTexture":{"index":0}}},{"name":"glTF_Materialxxxx","pbrMetallicRoughness":{"metallicFactor":0.0,"roughnessFactor":0.0,"baseColorTexture":{"index":2}}}],"meshes":[{"primitives":[{"attributes":{"COLOR_0":5,"NORMAL":2,"POSITION":0,"TANGENT":1,"TEXCOORD_0":3,"TEXCOORD_1":4},"indices":6,"material":3,"mode":4,"extras":{"ASOBO_primitive":{"PrimitiveCount":483,"VertexType":"VTX","VertexVersion":2}}}],"name":"part000"},{"primitives":[{"attributes":{"COLOR_0":12,"NORMAL":9,"POSITION":7,"TANGENT":8,"TEXCOORD_0":10,"TEXCOORD_1":11},"indices":13,"material":2,"mode":4,"extras":{"ASOBO_primitive":{"PrimitiveCount":643,"VertexType":"VTX","VertexVersion":2}}}],"name":"part001"},{"primitives":[{"attributes":{"COLOR_0":19,"NORMAL":16,"POSITION":14,"TANGENT":15,"TEXCOORD_0":17,"TEXCOORD_1":18},"indices":20,"material":4,"mode":4,"extras":{"ASOBO_primitive":{"PrimitiveCount":21,"VertexType":"VTX","VertexVersion":2}}}],"name":"part002"},{"primitives":[{"attributes":{"COLOR_0":26,"NORMAL":23,"POSITION":21,"TANGENT":22,"TEXCOORD_0":24,"TEXCOORD_1":25},"indices":27,"material":0,"mode":4,"extras":{"ASOBO_primitive":{"PrimitiveCount":288,"VertexType":"VTX","VertexVersion":2}}}],"name":"part003"},{"primitives":[{"attributes":{"COLOR_0":33,"NORMAL":30,"POSITION":28,"TANGENT":29,"TEXCOORD_0":31,"TEXCOORD_1":32},"indices":34,"material":1,"mode":4,"extras":{"ASOBO_primitive":{"PrimitiveCount":510,"VertexType":"VTX","VertexVersion":2}}}],"name":"part004"}],"nodes":[{"name":"node0","children":[1,2,3,4,5]},{"mesh":0,"name":"node1"},{"mesh":1,"name":"node2"},{"mesh":2,"name":"node3"},{"mesh":3,"name":"node4"},{"mesh":4,"name":"node5"}],"scene":0,"scenes":[{"nodes":[0]}],"textures":[{"extensions":{"MSFT_texture_dds":{"source":0}}},{"extensions":{"MSFT_texture_dds":{"source":1}}},{"extensions":{"MSFT_texture_dds":{"source":2}}}],"buffers":[{"byteLength":126208,"uri":"SBCXAlmoxarifado.bin"}],"images":[{"uri":"SBCXALMOXARIFADO_SBCXALMOXARIFADO.DDS.DDS","extras":"ASOBO_image_converted_meta"},{"uri":"SBCXALMOXARIFADO_SBCXALMOXARIFADO_NIGHT.DDS.DDS","extras":"ASOBO_image_converted_meta"},{"uri":"SBCXALMOXARIFADO_SBCXTERMINALTELHADO.DDS.DDS","extras":"ASOBO_image_converted_meta"}]}
