{"accessors":[{"bufferView":0,"componentType":5126,"count":1252,"min":[869.7039184570313,-0.00824000034481287,-229.47129821777345],"max":[907.410400390625,2.6675000190734865,-143.4062042236328],"type":"VEC3","name":"part000_vertices#0_POSITION"},{"bufferView":0,"byteOffset":12,"componentType":5120,"count":1252,"type":"VEC4","name":"part000_vertices#0_TANGENT"},{"bufferView":0,"byteOffset":16,"componentType":5120,"count":1252,"type":"VEC4","name":"part000_vertices#0_NORMAL"},{"bufferView":0,"byteOffset":20,"componentType":5122,"count":1252,"type":"VEC2","name":"part000_vertices#0_TEXCOORD_0"},{"bufferView":0,"byteOffset":24,"componentType":5122,"count":1252,"type":"VEC2","name":"part000_vertices#0_TEXCOORD_1"},{"bufferView":0,"byteOffset":28,"componentType":5123,"count":1252,"type":"VEC4","name":"part000_vertices#0_COLOR_0"},{"bufferView":1,"componentType":5123,"count":2310,"type":"SCALAR","name":"part000_indices#0"},{"bufferView":0,"byteOffset":45072,"componentType":5126,"count":1424,"min":[877.192626953125,-0.2156900018453598,-212.1710968017578],"max":[945.6884155273438,1.5938299894332886,-141.514404296875],"type":"VEC3","name":"part001_vertices#0_POSITION"},{"bufferView":0,"byteOffset":45084,"componentType":5120,"count":1424,"type":"VEC4","name":"part001_vertices#0_TANGENT"},{"bufferView":0,"byteOffset":45088,"componentType":5120,"count":1424,"type":"VEC4","name":"part001_vertices#0_NORMAL"},{"bufferView":0,"byteOffset":45092,"componentType":5122,"count":1424,"type":"VEC2","name":"part001_vertices#0_TEXCOORD_0"},{"bufferView":0,"byteOffset":45096,"componentType":5122,"count":1424,"type":"VEC2","name":"part001_vertices#0_TEXCOORD_1"},{"bufferView":0,"byteOffset":45100,"componentType":5123,"count":1424,"type":"VEC4","name":"part001_vertices#0_COLOR_0"},{"bufferView":1,"byteOffset":4620,"componentType":5123,"count":2484,"type":"SCALAR","name":"part001_indices#0"},{"bufferView":0,"byteOffset":96336,"componentType":5126,"count":338,"min":[877.142822265625,-0.00824000034481287,-208.74949645996095],"max":[907.3973999023438,1.5835000276565552,-143.5189971923828],"type":"VEC3","name":"part002_vertices#0_POSITION"},{"bufferView":0,"byteOffset":96348,"componentType":5120,"count":338,"type":"VEC4","name":"part002_vertices#0_TANGENT"},{"bufferView":0,"byteOffset":96352,"componentType":5120,"count":338,"type":"VEC4","name":"part002_vertices#0_NORMAL"},{"bufferView":0,"byteOffset":96356,"componentType":5122,"count":338,"type":"VEC2","name":"part002_vertices#0_TEXCOORD_0"},{"bufferView":0,"byteOffset":96360,"componentType":5122,"count":338,"type":"VEC2","name":"part002_vertices#0_TEXCOORD_1"},{"bufferView":0,"byteOffset":96364,"componentType":5123,"count":338,"type":"VEC4","name":"part002_vertices#0_COLOR_0"},{"bufferView":1,"byteOffset":9588,"componentType":5123,"count":606,"type":"SCALAR","name":"part002_indices#0"},{"bufferView":0,"byteOffset":108504,"componentType":5126,"count":4,"min":[907.3660278320313,1.5720700025558472,-143.522705078125],"max":[907.410400390625,1.5720700025558472,-143.40260314941407],"type":"VEC3","name":"part003_vertices#0_POSITION"},{"bufferView":0,"byteOffset":108516,"componentType":5120,"count":4,"type":"VEC4","name":"part003_vertices#0_TANGENT"},{"bufferView":0,"byteOffset":108520,"componentType":5120,"count":4,"type":"VEC4","name":"part003_vertices#0_NORMAL"},{"bufferView":0,"byteOffset":108524,"componentType":5122,"count":4,"type":"VEC2","name":"part003_vertices#0_TEXCOORD_0"},{"bufferView":0,"byteOffset":108528,"componentType":5122,"count":4,"type":"VEC2","name":"part003_vertices#0_TEXCOORD_1"},{"bufferView":0,"byteOffset":108532,"componentType":5123,"count":4,"type":"VEC4","name":"part003_vertices#0_COLOR_0"},{"bufferView":1,"byteOffset":10800,"componentType":5123,"count":6,"type":"SCALAR","name":"part003_indices#0"},{"bufferView":0,"byteOffset":108648,"componentType":5126,"count":4,"min":[906.3126831054688,0.002090000081807375,-153.2006072998047],"max":[906.346923828125,0.1846500039100647,-152.8939971923828],"type":"VEC3","name":"part004_vertices#0_POSITION"},{"bufferView":0,"byteOffset":108660,"componentType":5120,"count":4,"type":"VEC4","name":"part004_vertices#0_TANGENT"},{"bufferView":0,"byteOffset":108664,"componentType":5120,"count":4,"type":"VEC4","name":"part004_vertices#0_NORMAL"},{"bufferView":0,"byteOffset":108668,"componentType":5122,"count":4,"type":"VEC2","name":"part004_vertices#0_TEXCOORD_0"},{"bufferView":0,"byteOffset":108672,"componentType":5122,"count":4,"type":"VEC2","name":"part004_vertices#0_TEXCOORD_1"},{"bufferView":0,"byteOffset":108676,"componentType":5123,"count":4,"type":"VEC4","name":"part004_vertices#0_COLOR_0"},{"bufferView":1,"byteOffset":10812,"componentType":5123,"count":6,"type":"SCALAR","name":"part004_indices#0"},{"bufferView":0,"byteOffset":108792,"componentType":5126,"count":116,"min":[877.6569213867188,1.5617400407791138,-212.15899658203126],"max":[945.6881713867188,1.5835000276565552,-142.02859497070313],"type":"VEC3","name":"part005_vertices#0_POSITION"},{"bufferView":0,"byteOffset":108804,"componentType":5120,"count":116,"type":"VEC4","name":"part005_vertices#0_TANGENT"},{"bufferView":0,"byteOffset":108808,"componentType":5120,"count":116,"type":"VEC4","name":"part005_vertices#0_NORMAL"},{"bufferView":0,"byteOffset":108812,"componentType":5122,"count":116,"type":"VEC2","name":"part005_vertices#0_TEXCOORD_0"},{"bufferView":0,"byteOffset":108816,"componentType":5122,"count":116,"type":"VEC2","name":"part005_vertices#0_TEXCOORD_1"},{"bufferView":0,"byteOffset":108820,"componentType":5123,"count":116,"type":"VEC4","name":"part005_vertices#0_COLOR_0"},{"bufferView":1,"byteOffset":10824,"componentType":5123,"count":174,"type":"SCALAR","name":"part005_indices#0"},{"bufferView":0,"byteOffset":112968,"componentType":5126,"count":294,"min":[877.192626953125,0.002090000081807375,-212.1710968017578],"max":[945.6846923828125,1.0550800561904908,-141.514404296875],"type":"VEC3","name":"part006_vertices#0_POSITION"},{"bufferView":0,"byteOffset":112980,"componentType":5120,"count":294,"type":"VEC4","name":"part006_vertices#0_TANGENT"},{"bufferView":0,"byteOffset":112984,"componentType":5120,"count":294,"type":"VEC4","name":"part006_vertices#0_NORMAL"},{"bufferView":0,"byteOffset":112988,"componentType":5122,"count":294,"type":"VEC2","name":"part006_vertices#0_TEXCOORD_0"},{"bufferView":0,"byteOffset":112992,"componentType":5122,"count":294,"type":"VEC2","name":"part006_vertices#0_TEXCOORD_1"},{"bufferView":0,"byteOffset":112996,"componentType":5123,"count":294,"type":"VEC4","name":"part006_vertices#0_COLOR_0"},{"bufferView":1,"byteOffset":11172,"componentType":5123,"count":378,"type":"SCALAR","name":"part006_indices#0"},{"bufferView":0,"byteOffset":123552,"componentType":5126,"count":8,"min":[872.5593872070313,1.4730199575424195,-214.86099243164063],"max":[873.2349243164063,2.2072200775146486,-214.86099243164063],"type":"VEC3","name":"part007_vertices#0_POSITION"},{"bufferView":0,"byteOffset":123564,"componentType":5120,"count":8,"type":"VEC4","name":"part007_vertices#0_TANGENT"},{"bufferView":0,"byteOffset":123568,"componentType":5120,"count":8,"type":"VEC4","name":"part007_vertices#0_NORMAL"},{"bufferView":0,"byteOffset":123572,"componentType":5122,"count":8,"type":"VEC2","name":"part007_vertices#0_TEXCOORD_0"},{"bufferView":0,"byteOffset":123576,"componentType":5122,"count":8,"type":"VEC2","name":"part007_vertices#0_TEXCOORD_1"},{"bufferView":0,"byteOffset":123580,"componentType":5123,"count":8,"type":"VEC4","name":"part007_vertices#0_COLOR_0"},{"bufferView":1,"byteOffset":11928,"componentType":5123,"count":12,"type":"SCALAR","name":"part007_indices#0"},{"bufferView":0,"byteOffset":123840,"componentType":5126,"count":8,"min":[875.0891723632813,0.9208700060844421,-214.85240173339845],"max":[876.6926879882813,2.167759895324707,-214.85240173339845],"type":"VEC3","name":"part008_vertices#0_POSITION"},{"bufferView":0,"byteOffset":123852,"componentType":5120,"count":8,"type":"VEC4","name":"part008_vertices#0_TANGENT"},{"bufferView":0,"byteOffset":123856,"componentType":5120,"count":8,"type":"VEC4","name":"part008_vertices#0_NORMAL"},{"bufferView":0,"byteOffset":123860,"componentType":5122,"count":8,"type":"VEC2","name":"part008_vertices#0_TEXCOORD_0"},{"bufferView":0,"byteOffset":123864,"componentType":5122,"count":8,"type":"VEC2","name":"part008_vertices#0_TEXCOORD_1"},{"bufferView":0,"byteOffset":123868,"componentType":5123,"count":8,"type":"VEC4","name":"part008_vertices#0_COLOR_0"},{"bufferView":1,"byteOffset":11952,"componentType":5123,"count":12,"type":"SCALAR","name":"part008_indices#0"},{"bufferView":0,"byteOffset":124128,"componentType":5126,"count":1604,"min":[877.6552734375,-0.00824000034481287,-232.33180236816407],"max":[951.5034790039063,2.672260046005249,-142.02699279785157],"type":"VEC3","name":"part009_vertices#0_POSITION"},{"bufferView":0,"byteOffset":124140,"componentType":5120,"count":1604,"type":"VEC4","name":"part009_vertices#0_TANGENT"},{"bufferView":0,"byteOffset":124144,"componentType":5120,"count":1604,"type":"VEC4","name":"part009_vertices#0_NORMAL"},{"bufferView":0,"byteOffset":124148,"componentType":5122,"count":1604,"type":"VEC2","name":"part009_vertices#0_TEXCOORD_0"},{"bufferView":0,"byteOffset":124152,"componentType":5122,"count":1604,"type":"VEC2","name":"part009_vertices#0_TEXCOORD_1"},{"bufferView":0,"byteOffset":124156,"componentType":5123,"count":1604,"type":"VEC4","name":"part009_vertices#0_COLOR_0"},{"bufferView":1,"byteOffset":11976,"componentType":5123,"count":3036,"type":"SCALAR","name":"part009_indices#0"}],"asset":{"generator":"ModelConverterX","version":"2.0","extensions":{"ASOBO_asset_optimized":{"BoundingBoxMax":[951.5034790039063,2.672260046005249,-141.514404296875],"BoundingBoxMin":[869.7039184570313,-0.2156900018453598,-232.33180236816407],"MajorVersion":4,"MinorVersion":2}}},"bufferViews":[{"buffer":0,"byteLength":181872,"byteStride":36,"byteOffset":16,"target":34962,"name":"BufferViewVertexND"},{"buffer":0,"byteLength":18048,"byteOffset":181888,"target":34963,"name":"BufferViewIndex"}],"extensionsUsed":["MSFT_texture_dds","ASOBO_asset_optimized"],"extensionsRequired":["MSFT_texture_dds"],"materials":[{"name":"glTF_Material","pbrMetallicRoughness":{"metallicFactor":0.0}},{"name":"glTF_Materialx","pbrMetallicRoughness":{"metallicFactor":0.0,"baseColorTexture":{"index":0}}},{"name":"glTF_Materialxx","pbrMetallicRoughness":{"metallicFactor":0.0,"baseColorTexture":{"index":1}}},{"name":"glTF_Materialxxx","pbrMetallicRoughness":{"metallicFactor":0.0,"baseColorTexture":{"index":2}}},{"name":"glTF_Materialxxxx","pbrMetallicRoughness":{"metallicFactor":0.0,"baseColorTexture":{"index":3}}},{"name":"glTF_Materialxxxxx","pbrMetallicRoughness":{"metallicFactor":0.0,"baseColorTexture":{"index":4}}},{"name":"glTF_Materialxxxxxx","pbrMetallicRoughness":{"metallicFactor":0.0,"baseColorTexture":{"index":5}}},{"name":"glTF_Materialxxxxxxx","pbrMetallicRoughness":{"metallicFactor":0.0,"baseColorTexture":{"index":6}}},{"name":"glTF_Materialxxxxxxxx","pbrMetallicRoughness":{"metallicFactor":0.0,"baseColorTexture":{"index":7}}},{"name":"glTF_Materialxxxxxxxxx","pbrMetallicRoughness":{"metallicFactor":0.0,"baseColorTexture":{"index":8}}}],"meshes":[{"primitives":[{"attributes":{"COLOR_0":5,"NORMAL":2,"POSITION":0,"TANGENT":1,"TEXCOORD_0":3,"TEXCOORD_1":4},"indices":6,"material":0,"mode":4,"extras":{"ASOBO_primitive":{"PrimitiveCount":770,"VertexType":"VTX","VertexVersion":2}}}],"name":"part000"},{"primitives":[{"attributes":{"COLOR_0":12,"NORMAL":9,"POSITION":7,"TANGENT":8,"TEXCOORD_0":10,"TEXCOORD_1":11},"indices":13,"material":3,"mode":4,"extras":{"ASOBO_primitive":{"PrimitiveCount":828,"VertexType":"VTX","VertexVersion":2}}}],"name":"part001"},{"primitives":[{"attributes":{"COLOR_0":19,"NORMAL":16,"POSITION":14,"TANGENT":15,"TEXCOORD_0":17,"TEXCOORD_1":18},"indices":20,"material":2,"mode":4,"extras":{"ASOBO_primitive":{"PrimitiveCount":202,"VertexType":"VTX","VertexVersion":2}}}],"name":"part002"},{"primitives":[{"attributes":{"COLOR_0":26,"NORMAL":23,"POSITION":21,"TANGENT":22,"TEXCOORD_0":24,"TEXCOORD_1":25},"indices":27,"material":9,"mode":4,"extras":{"ASOBO_primitive":{"PrimitiveCount":2,"VertexType":"VTX","VertexVersion":2}}}],"name":"part003"},{"primitives":[{"attributes":{"COLOR_0":33,"NORMAL":30,"POSITION":28,"TANGENT":29,"TEXCOORD_0":31,"TEXCOORD_1":32},"indices":34,"material":6,"mode":4,"extras":{"ASOBO_primitive":{"PrimitiveCount":2,"VertexType":"VTX","VertexVersion":2}}}],"name":"part004"},{"primitives":[{"attributes":{"COLOR_0":40,"NORMAL":37,"POSITION":35,"TANGENT":36,"TEXCOORD_0":38,"TEXCOORD_1":39},"indices":41,"material":1,"mode":4,"extras":{"ASOBO_primitive":{"PrimitiveCount":58,"VertexType":"VTX","VertexVersion":2}}}],"name":"part005"},{"primitives":[{"attributes":{"COLOR_0":47,"NORMAL":44,"POSITION":42,"TANGENT":43,"TEXCOORD_0":45,"TEXCOORD_1":46},"indices":48,"material":4,"mode":4,"extras":{"ASOBO_primitive":{"PrimitiveCount":126,"VertexType":"VTX","VertexVersion":2}}}],"name":"part006"},{"primitives":[{"attributes":{"COLOR_0":54,"NORMAL":51,"POSITION":49,"TANGENT":50,"TEXCOORD_0":52,"TEXCOORD_1":53},"indices":55,"material":8,"mode":4,"extras":{"ASOBO_primitive":{"PrimitiveCount":4,"VertexType":"VTX","VertexVersion":2}}}],"name":"part007"},{"primitives":[{"attributes":{"COLOR_0":61,"NORMAL":58,"POSITION":56,"TANGENT":57,"TEXCOORD_0":59,"TEXCOORD_1":60},"indices":62,"material":7,"mode":4,"extras":{"ASOBO_primitive":{"PrimitiveCount":4,"VertexType":"VTX","VertexVersion":2}}}],"name":"part008"},{"primitives":[{"attributes":{"COLOR_0":68,"NORMAL":65,"POSITION":63,"TANGENT":64,"TEXCOORD_0":66,"TEXCOORD_1":67},"indices":69,"material":5,"mode":4,"extras":{"ASOBO_primitive":{"PrimitiveCount":1012,"VertexType":"VTX","VertexVersion":2}}}],"name":"part009"}],"nodes":[{"name":"node0","children":[1,2,3,4,5,6,7,8,9,10]},{"mesh":0,"name":"node1"},{"mesh":1,"name":"node2"},{"mesh":2,"name":"node3"},{"mesh":3,"name":"node4"},{"mesh":4,"name":"node5"},{"mesh":5,"name":"node6"},{"mesh":6,"name":"node7"},{"mesh":7,"name":"node8"},{"mesh":8,"name":"node9"},{"mesh":9,"name":"node10"}],"scene":0,"scenes":[{"nodes":[0]}],"textures":[{"extensions":{"MSFT_texture_dds":{"source":0}}},{"extensions":{"MSFT_texture_dds":{"source":1}}},{"extensions":{"MSFT_texture_dds":{"source":2}}},{"extensions":{"MSFT_texture_dds":{"source":3}}},{"extensions":{"MSFT_texture_dds":{"source":4}}},{"extensions":{"MSFT_texture_dds":{"source":5}}},{"extensions":{"MSFT_texture_dds":{"source":6}}},{"extensions":{"MSFT_texture_dds":{"source":7}}},{"extensions":{"MSFT_texture_dds":{"source":8}}}],"buffers":[{"byteLength":199936,"uri":"Patio1Estacionamento.bin"}],"images":[{"uri":"PATIO1ESTACIONAMENTO___WOOD_CHERRY_ORIGINAL_1.DDS.DDS","extras":"ASOBO_image_converted_meta"},{"uri":"PATIO1ESTACIONAMENTO_MADEIRA1.DDS.DDS","extras":"ASOBO_image_converted_meta"},{"uri":"PATIO1ESTACIONAMENTO_MADEIRA2.DDS.DDS","extras":"ASOBO_image_converted_meta"},{"uri":"PATIO1ESTACIONAMENTO_MADEIRA2_0.DDS.DDS","extras":"ASOBO_image_converted_meta"},{"uri":"PATIO1ESTACIONAMENTO_PATIO1CERCA.DDS.DDS","extras":"ASOBO_image_converted_meta"},{"uri":"PATIO1ESTACIONAMENTO_SBCXCONC4.DDS.DDS","extras":"ASOBO_image_converted_meta"},{"uri":"PATIO1ESTACIONAMENTO_TEXTURE.DDS.DDS","extras":"ASOBO_image_converted_meta"},{"uri":"PATIO1ESTACIONAMENTO_TEXTURE_0.DDS.DDS","extras":"ASOBO_image_converted_meta"},{"uri":"PATIO1ESTACIONAMENTO_WOOD_CHERRY_ORIGINAL.DDS.DDS","extras":"ASOBO_image_converted_meta"}]}
