{"accessors":[{"bufferView":0,"componentType":5126,"count":787,"min":[754.0087280273438,-0.010619999840855599,-195.70359802246095],"max":[779.7286987304688,6.645060062408447,-172.0561065673828],"type":"VEC3","name":"part000_vertices#0_POSITION"},{"bufferView":0,"byteOffset":12,"componentType":5120,"count":787,"type":"VEC4","name":"part000_vertices#0_TANGENT"},{"bufferView":0,"byteOffset":16,"componentType":5120,"count":787,"type":"VEC4","name":"part000_vertices#0_NORMAL"},{"bufferView":0,"byteOffset":20,"componentType":5122,"count":787,"type":"VEC2","name":"part000_vertices#0_TEXCOORD_0"},{"bufferView":0,"byteOffset":24,"componentType":5122,"count":787,"type":"VEC2","name":"part000_vertices#0_TEXCOORD_1"},{"bufferView":0,"byteOffset":28,"componentType":5123,"count":787,"type":"VEC4","name":"part000_vertices#0_COLOR_0"},{"bufferView":1,"componentType":5123,"count":1161,"type":"SCALAR","name":"part000_indices#0"},{"bufferView":0,"byteOffset":28332,"componentType":5126,"count":1209,"min":[754.1754760742188,-0.010619999840855599,-195.70359802246095],"max":[779.4417114257813,6.713250160217285,-172.0561065673828],"type":"VEC3","name":"part001_vertices#0_POSITION"},{"bufferView":0,"byteOffset":28344,"componentType":5120,"count":1209,"type":"VEC4","name":"part001_vertices#0_TANGENT"},{"bufferView":0,"byteOffset":28348,"componentType":5120,"count":1209,"type":"VEC4","name":"part001_vertices#0_NORMAL"},{"bufferView":0,"byteOffset":28352,"componentType":5122,"count":1209,"type":"VEC2","name":"part001_vertices#0_TEXCOORD_0"},{"bufferView":0,"byteOffset":28356,"componentType":5122,"count":1209,"type":"VEC2","name":"part001_vertices#0_TEXCOORD_1"},{"bufferView":0,"byteOffset":28360,"componentType":5123,"count":1209,"type":"VEC4","name":"part001_vertices#0_COLOR_0"},{"bufferView":1,"byteOffset":2322,"componentType":5123,"count":2442,"type":"SCALAR","name":"part001_indices#0"},{"bufferView":0,"byteOffset":71856,"componentType":5126,"count":101,"min":[754.5806884765625,-0.010619999840855599,-192.089599609375],"max":[756.6447143554688,6.676509857177734,-175.03399658203126],"type":"VEC3","name":"part002_vertices#0_POSITION"},{"bufferView":0,"byteOffset":71868,"componentType":5120,"count":101,"type":"VEC4","name":"part002_vertices#0_TANGENT"},{"bufferView":0,"byteOffset":71872,"componentType":5120,"count":101,"type":"VEC4","name":"part002_vertices#0_NORMAL"},{"bufferView":0,"byteOffset":71876,"componentType":5122,"count":101,"type":"VEC2","name":"part002_vertices#0_TEXCOORD_0"},{"bufferView":0,"byteOffset":71880,"componentType":5122,"count":101,"type":"VEC2","name":"part002_vertices#0_TEXCOORD_1"},{"bufferView":0,"byteOffset":71884,"componentType":5123,"count":101,"type":"VEC4","name":"part002_vertices#0_COLOR_0"},{"bufferView":1,"byteOffset":7206,"componentType":5123,"count":207,"type":"SCALAR","name":"part002_indices#0"},{"bufferView":0,"byteOffset":75492,"componentType":5126,"count":288,"min":[754.0087280273438,-0.010619999840855599,-196.12649536132813],"max":[779.7286987304688,6.731619834899902,-171.9459991455078],"type":"VEC3","name":"part003_vertices#0_POSITION"},{"bufferView":0,"byteOffset":75504,"componentType":5120,"count":288,"type":"VEC4","name":"part003_vertices#0_TANGENT"},{"bufferView":0,"byteOffset":75508,"componentType":5120,"count":288,"type":"VEC4","name":"part003_vertices#0_NORMAL"},{"bufferView":0,"byteOffset":75512,"componentType":5122,"count":288,"type":"VEC2","name":"part003_vertices#0_TEXCOORD_0"},{"bufferView":0,"byteOffset":75516,"componentType":5122,"count":288,"type":"VEC2","name":"part003_vertices#0_TEXCOORD_1"},{"bufferView":0,"byteOffset":75520,"componentType":5123,"count":288,"type":"VEC4","name":"part003_vertices#0_COLOR_0"},{"bufferView":1,"byteOffset":7620,"componentType":5123,"count":588,"type":"SCALAR","name":"part003_indices#0"},{"bufferView":0,"byteOffset":85860,"componentType":5126,"count":76,"min":[755.06298828125,-0.010619999840855599,-195.65139770507813],"max":[778.9970703125,4.335259914398193,-172.347900390625],"type":"VEC3","name":"part004_vertices#0_POSITION"},{"bufferView":0,"byteOffset":85872,"componentType":5120,"count":76,"type":"VEC4","name":"part004_vertices#0_TANGENT"},{"bufferView":0,"byteOffset":85876,"componentType":5120,"count":76,"type":"VEC4","name":"part004_vertices#0_NORMAL"},{"bufferView":0,"byteOffset":85880,"componentType":5122,"count":76,"type":"VEC2","name":"part004_vertices#0_TEXCOORD_0"},{"bufferView":0,"byteOffset":85884,"componentType":5122,"count":76,"type":"VEC2","name":"part004_vertices#0_TEXCOORD_1"},{"bufferView":0,"byteOffset":85888,"componentType":5123,"count":76,"type":"VEC4","name":"part004_vertices#0_COLOR_0"},{"bufferView":1,"byteOffset":8796,"componentType":5123,"count":210,"type":"SCALAR","name":"part004_indices#0"},{"bufferView":0,"byteOffset":88596,"componentType":5126,"count":63,"min":[754.6873168945313,-0.010619999840855599,-187.61749267578126],"max":[778.9697265625,5.560329914093018,-175.32479858398438],"type":"VEC3","name":"part005_vertices#0_POSITION"},{"bufferView":0,"byteOffset":88608,"componentType":5120,"count":63,"type":"VEC4","name":"part005_vertices#0_TANGENT"},{"bufferView":0,"byteOffset":88612,"componentType":5120,"count":63,"type":"VEC4","name":"part005_vertices#0_NORMAL"},{"bufferView":0,"byteOffset":88616,"componentType":5122,"count":63,"type":"VEC2","name":"part005_vertices#0_TEXCOORD_0"},{"bufferView":0,"byteOffset":88620,"componentType":5122,"count":63,"type":"VEC2","name":"part005_vertices#0_TEXCOORD_1"},{"bufferView":0,"byteOffset":88624,"componentType":5123,"count":63,"type":"VEC4","name":"part005_vertices#0_COLOR_0"},{"bufferView":1,"byteOffset":9216,"componentType":5123,"count":111,"type":"SCALAR","name":"part005_indices#0"},{"bufferView":0,"byteOffset":90864,"componentType":5126,"count":32,"min":[755.06298828125,-0.010619999840855599,-195.65139770507813],"max":[778.9970703125,0.5416100025177002,-172.347900390625],"type":"VEC3","name":"part006_vertices#0_POSITION"},{"bufferView":0,"byteOffset":90876,"componentType":5120,"count":32,"type":"VEC4","name":"part006_vertices#0_TANGENT"},{"bufferView":0,"byteOffset":90880,"componentType":5120,"count":32,"type":"VEC4","name":"part006_vertices#0_NORMAL"},{"bufferView":0,"byteOffset":90884,"componentType":5122,"count":32,"type":"VEC2","name":"part006_vertices#0_TEXCOORD_0"},{"bufferView":0,"byteOffset":90888,"componentType":5122,"count":32,"type":"VEC2","name":"part006_vertices#0_TEXCOORD_1"},{"bufferView":0,"byteOffset":90892,"componentType":5123,"count":32,"type":"VEC4","name":"part006_vertices#0_COLOR_0"},{"bufferView":1,"byteOffset":9438,"componentType":5123,"count":48,"type":"SCALAR","name":"part006_indices#0"},{"bufferView":0,"byteOffset":92016,"componentType":5126,"count":8,"min":[755.6840209960938,4.663169860839844,-187.9040985107422],"max":[755.9937133789063,5.1314802169799809,-185.66610717773438],"type":"VEC3","name":"part007_vertices#0_POSITION"},{"bufferView":0,"byteOffset":92028,"componentType":5120,"count":8,"type":"VEC4","name":"part007_vertices#0_TANGENT"},{"bufferView":0,"byteOffset":92032,"componentType":5120,"count":8,"type":"VEC4","name":"part007_vertices#0_NORMAL"},{"bufferView":0,"byteOffset":92036,"componentType":5122,"count":8,"type":"VEC2","name":"part007_vertices#0_TEXCOORD_0"},{"bufferView":0,"byteOffset":92040,"componentType":5122,"count":8,"type":"VEC2","name":"part007_vertices#0_TEXCOORD_1"},{"bufferView":0,"byteOffset":92044,"componentType":5123,"count":8,"type":"VEC4","name":"part007_vertices#0_COLOR_0"},{"bufferView":1,"byteOffset":9534,"componentType":5123,"count":12,"type":"SCALAR","name":"part007_indices#0"},{"bufferView":0,"byteOffset":92304,"componentType":5126,"count":796,"min":[755.0029907226563,0.24077999591827393,-192.10049438476563],"max":[779.0958251953125,5.588950157165527,-173.27099609375],"type":"VEC3","name":"part008_vertices#0_POSITION"},{"bufferView":0,"byteOffset":92316,"componentType":5120,"count":796,"type":"VEC4","name":"part008_vertices#0_TANGENT"},{"bufferView":0,"byteOffset":92320,"componentType":5120,"count":796,"type":"VEC4","name":"part008_vertices#0_NORMAL"},{"bufferView":0,"byteOffset":92324,"componentType":5122,"count":796,"type":"VEC2","name":"part008_vertices#0_TEXCOORD_0"},{"bufferView":0,"byteOffset":92328,"componentType":5122,"count":796,"type":"VEC2","name":"part008_vertices#0_TEXCOORD_1"},{"bufferView":0,"byteOffset":92332,"componentType":5123,"count":796,"type":"VEC4","name":"part008_vertices#0_COLOR_0"},{"bufferView":1,"byteOffset":9558,"componentType":5123,"count":1434,"type":"SCALAR","name":"part008_indices#0"},{"bufferView":0,"byteOffset":120960,"componentType":5126,"count":22,"min":[754.4389038085938,4.159930229187012,-192.11680603027345],"max":[778.9970703125,4.663169860839844,-172.347900390625],"type":"VEC3","name":"part009_vertices#0_POSITION"},{"bufferView":0,"byteOffset":120972,"componentType":5120,"count":22,"type":"VEC4","name":"part009_vertices#0_TANGENT"},{"bufferView":0,"byteOffset":120976,"componentType":5120,"count":22,"type":"VEC4","name":"part009_vertices#0_NORMAL"},{"bufferView":0,"byteOffset":120980,"componentType":5122,"count":22,"type":"VEC2","name":"part009_vertices#0_TEXCOORD_0"},{"bufferView":0,"byteOffset":120984,"componentType":5122,"count":22,"type":"VEC2","name":"part009_vertices#0_TEXCOORD_1"},{"bufferView":0,"byteOffset":120988,"componentType":5123,"count":22,"type":"VEC4","name":"part009_vertices#0_COLOR_0"},{"bufferView":1,"byteOffset":12426,"componentType":5123,"count":54,"type":"SCALAR","name":"part009_indices#0"},{"bufferView":0,"byteOffset":121752,"componentType":5126,"count":6,"min":[778.007080078125,3.7836899757385256,-181.8762969970703],"max":[778.334716796875,4.55679988861084,-179.16920471191407],"type":"VEC3","name":"part010_vertices#0_POSITION"},{"bufferView":0,"byteOffset":121764,"componentType":5120,"count":6,"type":"VEC4","name":"part010_vertices#0_TANGENT"},{"bufferView":0,"byteOffset":121768,"componentType":5120,"count":6,"type":"VEC4","name":"part010_vertices#0_NORMAL"},{"bufferView":0,"byteOffset":121772,"componentType":5122,"count":6,"type":"VEC2","name":"part010_vertices#0_TEXCOORD_0"},{"bufferView":0,"byteOffset":121776,"componentType":5122,"count":6,"type":"VEC2","name":"part010_vertices#0_TEXCOORD_1"},{"bufferView":0,"byteOffset":121780,"componentType":5123,"count":6,"type":"VEC4","name":"part010_vertices#0_COLOR_0"},{"bufferView":1,"byteOffset":12534,"componentType":5123,"count":12,"type":"SCALAR","name":"part010_indices#0"},{"bufferView":0,"byteOffset":121968,"componentType":5126,"count":190,"min":[754.4135131835938,-0.010619999840855599,-192.31309509277345],"max":[779.4417114257813,4.663169860839844,-172.0561065673828],"type":"VEC3","name":"part011_vertices#0_POSITION"},{"bufferView":0,"byteOffset":121980,"componentType":5120,"count":190,"type":"VEC4","name":"part011_vertices#0_TANGENT"},{"bufferView":0,"byteOffset":121984,"componentType":5120,"count":190,"type":"VEC4","name":"part011_vertices#0_NORMAL"},{"bufferView":0,"byteOffset":121988,"componentType":5122,"count":190,"type":"VEC2","name":"part011_vertices#0_TEXCOORD_0"},{"bufferView":0,"byteOffset":121992,"componentType":5122,"count":190,"type":"VEC2","name":"part011_vertices#0_TEXCOORD_1"},{"bufferView":0,"byteOffset":121996,"componentType":5123,"count":190,"type":"VEC4","name":"part011_vertices#0_COLOR_0"},{"bufferView":1,"byteOffset":12558,"componentType":5123,"count":300,"type":"SCALAR","name":"part011_indices#0"},{"bufferView":0,"byteOffset":128808,"componentType":5126,"count":12,"min":[755.290771484375,-0.010619999840855599,-181.3153076171875],"max":[755.478271484375,2.6452701091766359,-179.76609802246095],"type":"VEC3","name":"part012_vertices#0_POSITION"},{"bufferView":0,"byteOffset":128820,"componentType":5120,"count":12,"type":"VEC4","name":"part012_vertices#0_TANGENT"},{"bufferView":0,"byteOffset":128824,"componentType":5120,"count":12,"type":"VEC4","name":"part012_vertices#0_NORMAL"},{"bufferView":0,"byteOffset":128828,"componentType":5122,"count":12,"type":"VEC2","name":"part012_vertices#0_TEXCOORD_0"},{"bufferView":0,"byteOffset":128832,"componentType":5122,"count":12,"type":"VEC2","name":"part012_vertices#0_TEXCOORD_1"},{"bufferView":0,"byteOffset":128836,"componentType":5123,"count":12,"type":"VEC4","name":"part012_vertices#0_COLOR_0"},{"bufferView":1,"byteOffset":13158,"componentType":5123,"count":12,"type":"SCALAR","name":"part012_indices#0"}],"asset":{"generator":"ModelConverterX","version":"2.0","extensions":{"ASOBO_asset_optimized":{"BoundingBoxMax":[779.7286987304688,6.731619834899902,-171.9459991455078],"BoundingBoxMin":[754.0087280273438,-0.010619999840855599,-196.12649536132813],"MajorVersion":4,"MinorVersion":2}}},"bufferViews":[{"buffer":0,"byteLength":129240,"byteStride":36,"byteOffset":40,"target":34962,"name":"BufferViewVertexND"},{"buffer":0,"byteLength":13182,"byteOffset":129282,"target":34963,"name":"BufferViewIndex"}],"extensionsUsed":["MSFT_texture_dds","ASOBO_asset_optimized"],"extensionsRequired":["MSFT_texture_dds"],"materials":[{"name":"glTF_Material","pbrMetallicRoughness":{"metallicFactor":0.0,"roughnessFactor":0.0,"baseColorTexture":{"index":0}}},{"name":"glTF_Materialx","emissiveTexture":{"index":1},"pbrMetallicRoughness":{"metallicFactor":0.0,"roughnessFactor":0.0,"baseColorTexture":{"index":0}}},{"name":"glTF_Materialxx","pbrMetallicRoughness":{"metallicFactor":0.0,"roughnessFactor":0.0,"baseColorTexture":{"index":0}}},{"name":"glTF_Materialxxx","emissiveTexture":{"index":3},"pbrMetallicRoughness":{"metallicFactor":0.0,"roughnessFactor":0.0,"baseColorTexture":{"index":2}}},{"name":"glTF_Materialxxxx","emissiveTexture":{"index":5},"pbrMetallicRoughness":{"metallicFactor":0.0,"roughnessFactor":0.0,"baseColorTexture":{"index":4}}},{"name":"glTF_Materialxxxxx","emissiveTexture":{"index":7},"pbrMetallicRoughness":{"metallicFactor":0.0,"roughnessFactor":0.0,"baseColorTexture":{"index":6}}},{"name":"glTF_Materialxxxxxx","emissiveTexture":{"index":9},"pbrMetallicRoughness":{"metallicFactor":0.0,"roughnessFactor":0.0,"baseColorTexture":{"index":8}}},{"name":"glTF_Materialxxxxxxx","emissiveTexture":{"index":11},"pbrMetallicRoughness":{"metallicFactor":0.0,"roughnessFactor":0.0,"baseColorTexture":{"index":10}}},{"name":"glTF_Materialxxxxxxxx","emissiveTexture":{"index":13},"pbrMetallicRoughness":{"metallicFactor":0.0,"roughnessFactor":0.0,"baseColorTexture":{"index":12}}},{"name":"glTF_Materialxxxxxxxxx","emissiveTexture":{"index":15},"pbrMetallicRoughness":{"metallicFactor":0.0,"roughnessFactor":0.0,"baseColorTexture":{"index":14}}},{"name":"glTF_Materialxxxxxxxxxx","pbrMetallicRoughness":{"metallicFactor":0.0,"roughnessFactor":0.0,"baseColorTexture":{"index":16}}},{"name":"glTF_Materialxxxxxxxxxxx","pbrMetallicRoughness":{"metallicFactor":0.0,"roughnessFactor":0.0,"baseColorTexture":{"index":17}}},{"name":"glTF_Materialxxxxxxxxxxxx","emissiveTexture":{"index":19},"pbrMetallicRoughness":{"metallicFactor":0.0,"roughnessFactor":0.0,"baseColorTexture":{"index":18}}}],"meshes":[{"primitives":[{"attributes":{"COLOR_0":5,"NORMAL":2,"POSITION":0,"TANGENT":1,"TEXCOORD_0":3,"TEXCOORD_1":4},"indices":6,"material":2,"mode":4,"extras":{"ASOBO_primitive":{"PrimitiveCount":387,"VertexType":"VTX","VertexVersion":2}}}],"name":"part000"},{"primitives":[{"attributes":{"COLOR_0":12,"NORMAL":9,"POSITION":7,"TANGENT":8,"TEXCOORD_0":10,"TEXCOORD_1":11},"indices":13,"material":1,"mode":4,"extras":{"ASOBO_primitive":{"PrimitiveCount":814,"VertexType":"VTX","VertexVersion":2}}}],"name":"part001"},{"primitives":[{"attributes":{"COLOR_0":19,"NORMAL":16,"POSITION":14,"TANGENT":15,"TEXCOORD_0":17,"TEXCOORD_1":18},"indices":20,"material":12,"mode":4,"extras":{"ASOBO_primitive":{"PrimitiveCount":69,"VertexType":"VTX","VertexVersion":2}}}],"name":"part002"},{"primitives":[{"attributes":{"COLOR_0":26,"NORMAL":23,"POSITION":21,"TANGENT":22,"TEXCOORD_0":24,"TEXCOORD_1":25},"indices":27,"material":10,"mode":4,"extras":{"ASOBO_primitive":{"PrimitiveCount":196,"VertexType":"VTX","VertexVersion":2}}}],"name":"part003"},{"primitives":[{"attributes":{"COLOR_0":33,"NORMAL":30,"POSITION":28,"TANGENT":29,"TEXCOORD_0":31,"TEXCOORD_1":32},"indices":34,"material":8,"mode":4,"extras":{"ASOBO_primitive":{"PrimitiveCount":70,"VertexType":"VTX","VertexVersion":2}}}],"name":"part004"},{"primitives":[{"attributes":{"COLOR_0":40,"NORMAL":37,"POSITION":35,"TANGENT":36,"TEXCOORD_0":38,"TEXCOORD_1":39},"indices":41,"material":5,"mode":4,"extras":{"ASOBO_primitive":{"PrimitiveCount":37,"VertexType":"VTX","VertexVersion":2}}}],"name":"part005"},{"primitives":[{"attributes":{"COLOR_0":47,"NORMAL":44,"POSITION":42,"TANGENT":43,"TEXCOORD_0":45,"TEXCOORD_1":46},"indices":48,"material":7,"mode":4,"extras":{"ASOBO_primitive":{"PrimitiveCount":16,"VertexType":"VTX","VertexVersion":2}}}],"name":"part006"},{"primitives":[{"attributes":{"COLOR_0":54,"NORMAL":51,"POSITION":49,"TANGENT":50,"TEXCOORD_0":52,"TEXCOORD_1":53},"indices":55,"material":3,"mode":4,"extras":{"ASOBO_primitive":{"PrimitiveCount":4,"VertexType":"VTX","VertexVersion":2}}}],"name":"part007"},{"primitives":[{"attributes":{"COLOR_0":61,"NORMAL":58,"POSITION":56,"TANGENT":57,"TEXCOORD_0":59,"TEXCOORD_1":60},"indices":62,"material":11,"mode":4,"extras":{"ASOBO_primitive":{"PrimitiveCount":478,"VertexType":"VTX","VertexVersion":2}}}],"name":"part008"},{"primitives":[{"attributes":{"COLOR_0":68,"NORMAL":65,"POSITION":63,"TANGENT":64,"TEXCOORD_0":66,"TEXCOORD_1":67},"indices":69,"material":9,"mode":4,"extras":{"ASOBO_primitive":{"PrimitiveCount":18,"VertexType":"VTX","VertexVersion":2}}}],"name":"part009"},{"primitives":[{"attributes":{"COLOR_0":75,"NORMAL":72,"POSITION":70,"TANGENT":71,"TEXCOORD_0":73,"TEXCOORD_1":74},"indices":76,"material":6,"mode":4,"extras":{"ASOBO_primitive":{"PrimitiveCount":4,"VertexType":"VTX","VertexVersion":2}}}],"name":"part010"},{"primitives":[{"attributes":{"COLOR_0":82,"NORMAL":79,"POSITION":77,"TANGENT":78,"TEXCOORD_0":80,"TEXCOORD_1":81},"indices":83,"material":4,"mode":4,"extras":{"ASOBO_primitive":{"PrimitiveCount":100,"VertexType":"VTX","VertexVersion":2}}}],"name":"part011"},{"primitives":[{"attributes":{"COLOR_0":89,"NORMAL":86,"POSITION":84,"TANGENT":85,"TEXCOORD_0":87,"TEXCOORD_1":88},"indices":90,"material":0,"mode":4,"extras":{"ASOBO_primitive":{"PrimitiveCount":4,"VertexType":"VTX","VertexVersion":2}}}],"name":"part012"}],"nodes":[{"name":"node0","children":[1,2,3,4,5,6,7,8,9,10,11,12,13]},{"mesh":0,"name":"node1"},{"mesh":1,"name":"node2"},{"mesh":2,"name":"node3"},{"mesh":3,"name":"node4"},{"mesh":4,"name":"node5"},{"mesh":5,"name":"node6"},{"mesh":6,"name":"node7"},{"mesh":7,"name":"node8"},{"mesh":8,"name":"node9"},{"mesh":9,"name":"node10"},{"mesh":10,"name":"node11"},{"mesh":11,"name":"node12"},{"mesh":12,"name":"node13"}],"scene":0,"scenes":[{"nodes":[0]}],"textures":[{"extensions":{"MSFT_texture_dds":{"source":0}}},{"extensions":{"MSFT_texture_dds":{"source":1}}},{"extensions":{"MSFT_texture_dds":{"source":2}}},{"extensions":{"MSFT_texture_dds":{"source":3}}},{"extensions":{"MSFT_texture_dds":{"source":4}}},{"extensions":{"MSFT_texture_dds":{"source":5}}},{"extensions":{"MSFT_texture_dds":{"source":6}}},{"extensions":{"MSFT_texture_dds":{"source":7}}},{"extensions":{"MSFT_texture_dds":{"source":8}}},{"extensions":{"MSFT_texture_dds":{"source":9}}},{"extensions":{"MSFT_texture_dds":{"source":10}}},{"extensions":{"MSFT_texture_dds":{"source":11}}},{"extensions":{"MSFT_texture_dds":{"source":12}}},{"extensions":{"MSFT_texture_dds":{"source":13}}},{"extensions":{"MSFT_texture_dds":{"source":14}}},{"extensions":{"MSFT_texture_dds":{"source":15}}},{"extensions":{"MSFT_texture_dds":{"source":16}}},{"extensions":{"MSFT_texture_dds":{"source":17}}},{"extensions":{"MSFT_texture_dds":{"source":18}}},{"extensions":{"MSFT_texture_dds":{"source":19}}}],"buffers":[{"byteLength":142464,"uri":"Patio1ObjetosCarga.bin"}],"images":[{"uri":"PATIO1OBJETOSCARGA_0.DDS.DDS","extras":"ASOBO_image_converted_meta"},{"uri":"PATIO1OBJETOSCARGA_0_LM.DDS.DDS","extras":"ASOBO_image_converted_meta"},{"uri":"PATIO1OBJETOSCARGA_1.DDS.DDS","extras":"ASOBO_image_converted_meta"},{"uri":"PATIO1OBJETOSCARGA_1_LM.DDS.DDS","extras":"ASOBO_image_converted_meta"},{"uri":"PATIO1OBJETOSCARGA_CONCRETOESCUROCARGA.DDS.DDS","extras":"ASOBO_image_converted_meta"},{"uri":"PATIO1OBJETOSCARGA_CONCRETOESCUROCARGA_NIGHT.DDS.DDS","extras":"ASOBO_image_converted_meta"},{"uri":"PATIO1OBJETOSCARGA_FACHADAMETALCARGA.DDS.DDS","extras":"ASOBO_image_converted_meta"},{"uri":"PATIO1OBJETOSCARGA_FACHADAMETALCARGA_NIGHT.DDS.DDS","extras":"ASOBO_image_converted_meta"},{"uri":"PATIO1OBJETOSCARGA_GOLLOGCARGA.DDS.DDS","extras":"ASOBO_image_converted_meta"},{"uri":"PATIO1OBJETOSCARGA_GOLLOGCARGA_NIGHT.DDS.DDS","extras":"ASOBO_image_converted_meta"},{"uri":"PATIO1OBJETOSCARGA_MUSGOBRANCOCARGA.DDS.DDS","extras":"ASOBO_image_converted_meta"},{"uri":"PATIO1OBJETOSCARGA_MUSGOBRANCOCARGA_NIGHT.DDS.DDS","extras":"ASOBO_image_converted_meta"},{"uri":"PATIO1OBJETOSCARGA_SKETCHY_BRICK_MULTI.DDS.DDS","extras":"ASOBO_image_converted_meta"},{"uri":"PATIO1OBJETOSCARGA_SKETCHY_BRICK_MULTI_NIGHT.DDS.DDS","extras":"ASOBO_image_converted_meta"},{"uri":"PATIO1OBJETOSCARGA_SOMBRABRANCACARGA.DDS.DDS","extras":"ASOBO_image_converted_meta"},{"uri":"PATIO1OBJETOSCARGA_SOMBRABRANCACARGA_NIGHT.DDS.DDS","extras":"ASOBO_image_converted_meta"},{"uri":"PATIO1OBJETOSCARGA_TELHADOMANUTEN__O.DDS.DDS","extras":"ASOBO_image_converted_meta"},{"uri":"PATIO1OBJETOSCARGA_TETOMETALMANUTEN__OGOL.DDS.DDS","extras":"ASOBO_image_converted_meta"},{"uri":"PATIO1OBJETOSCARGA_TIJOLOSCARGA.DDS.DDS","extras":"ASOBO_image_converted_meta"},{"uri":"PATIO1OBJETOSCARGA_TIJOLOSCARGA_NIGHT.DDS.DDS","extras":"ASOBO_image_converted_meta"}]}
