{
  "asset": {
    "version": "2.0",
    "generator": "ModelConverterX"
  },
  "extensionsUsed": [],
  "scene": 0,
  "scenes": [
    {
      "nodes": [
        0
      ]
    }
  ],
  "nodes": [
    {
      "name": "node0",
      "children": [
        1,
        2,
        3,
        4,
        5
      ]
    },
    {
      "name": "node1",
      "mesh": 0
    },
    {
      "name": "node2",
      "mesh": 1
    },
    {
      "name": "node3",
      "mesh": 2
    },
    {
      "name": "node4",
      "mesh": 3
    },
    {
      "name": "node5",
      "mesh": 4
    }
  ],
  "meshes": [
    {
      "primitives": [
        {
          "attributes": {
            "POSITION": 0,
            "NORMAL": 1,
            "TEXCOORD_0": 2
          },
          "indices": 3,
          "mode": 4,
          "material": 3
        }
      ],
      "name": "part000"
    },
    {
      "primitives": [
        {
          "attributes": {
            "POSITION": 4,
            "NORMAL": 5,
            "TEXCOORD_0": 6
          },
          "indices": 7,
          "mode": 4,
          "material": 2
        }
      ],
      "name": "part001"
    },
    {
      "primitives": [
        {
          "attributes": {
            "POSITION": 8,
            "NORMAL": 9,
            "TEXCOORD_0": 10
          },
          "indices": 11,
          "mode": 4,
          "material": 4
        }
      ],
      "name": "part002"
    },
    {
      "primitives": [
        {
          "attributes": {
            "POSITION": 12,
            "NORMAL": 13,
            "TEXCOORD_0": 14
          },
          "indices": 15,
          "mode": 4,
          "material": 0
        }
      ],
      "name": "part003"
    },
    {
      "primitives": [
        {
          "attributes": {
            "POSITION": 16,
            "NORMAL": 17,
            "TEXCOORD_0": 18
          },
          "indices": 19,
          "mode": 4,
          "material": 1
        }
      ],
      "name": "part004"
    }
  ],
  "accessors": [
    {
      "bufferView": 1,
      "byteOffset": 0,
      "componentType": 5126,
      "count": 809,
      "type": "VEC3",
      "min": [
        781.14978,
        0.10845,
        -205.9061
      ],
      "max": [
        797.76678,
        6.60116,
        -194.8954
      ]
    },
    {
      "bufferView": 2,
      "byteOffset": 0,
      "componentType": 5126,
      "count": 809,
      "type": "VEC3"
    },
    {
      "bufferView": 3,
      "byteOffset": 0,
      "componentType": 5126,
      "count": 809,
      "type": "VEC2"
    },
    {
      "bufferView": 0,
      "byteOffset": 0,
      "componentType": 5125,
      "count": 1449,
      "type": "SCALAR"
    },
    {
      "bufferView": 1,
      "byteOffset": 9708,
      "componentType": 5126,
      "count": 1093,
      "type": "VEC3",
      "min": [
        781.4173,
        0.10845,
        -205.9061
      ],
      "max": [
        797.76678,
        6.60116,
        -195.3257
      ]
    },
    {
      "bufferView": 2,
      "byteOffset": 9708,
      "componentType": 5126,
      "count": 1093,
      "type": "VEC3"
    },
    {
      "bufferView": 3,
      "byteOffset": 6472,
      "componentType": 5126,
      "count": 1093,
      "type": "VEC2"
    },
    {
      "bufferView": 0,
      "byteOffset": 5796,
      "componentType": 5125,
      "count": 1929,
      "type": "SCALAR"
    },
    {
      "bufferView": 1,
      "byteOffset": 22824,
      "componentType": 5126,
      "count": 32,
      "type": "VEC3",
      "min": [
        781.4173,
        4.54232,
        -205.9061
      ],
      "max": [
        797.55658,
        6.16785,
        -195.3345
      ]
    },
    {
      "bufferView": 2,
      "byteOffset": 22824,
      "componentType": 5126,
      "count": 32,
      "type": "VEC3"
    },
    {
      "bufferView": 3,
      "byteOffset": 15216,
      "componentType": 5126,
      "count": 32,
      "type": "VEC2"
    },
    {
      "bufferView": 0,
      "byteOffset": 13512,
      "componentType": 5125,
      "count": 63,
      "type": "SCALAR"
    },
    {
      "bufferView": 1,
      "byteOffset": 23208,
      "componentType": 5126,
      "count": 348,
      "type": "VEC3",
      "min": [
        782.23932,
        0.99189,
        -202.1358
      ],
      "max": [
        797.76678,
        4.84708,
        -195.3257
      ]
    },
    {
      "bufferView": 2,
      "byteOffset": 23208,
      "componentType": 5126,
      "count": 348,
      "type": "VEC3"
    },
    {
      "bufferView": 3,
      "byteOffset": 15472,
      "componentType": 5126,
      "count": 348,
      "type": "VEC2"
    },
    {
      "bufferView": 0,
      "byteOffset": 13764,
      "componentType": 5125,
      "count": 864,
      "type": "SCALAR"
    },
    {
      "bufferView": 1,
      "byteOffset": 27384,
      "componentType": 5126,
      "count": 868,
      "type": "VEC3",
      "min": [
        790.03088,
        1.11392,
        -201.5499
      ],
      "max": [
        797.70959,
        4.84708,
        -195.4478
      ]
    },
    {
      "bufferView": 2,
      "byteOffset": 27384,
      "componentType": 5126,
      "count": 868,
      "type": "VEC3"
    },
    {
      "bufferView": 3,
      "byteOffset": 18256,
      "componentType": 5126,
      "count": 868,
      "type": "VEC2"
    },
    {
      "bufferView": 0,
      "byteOffset": 17220,
      "componentType": 5125,
      "count": 1530,
      "type": "SCALAR"
    }
  ],
  "materials": [
    {
      "pbrMetallicRoughness": {
        "baseColorFactor": [
          0.41176500916481018,
          0.41176500916481018,
          0.41176500916481018,
          1.0
        ],
        "roughnessFactor": 1.0,
        "metallicFactor": 0.0
      },
      "emissiveFactor": [
        0.0,
        0.0,
        0.0
      ]
    },
    {
      "pbrMetallicRoughness": {
        "baseColorFactor": [
          0.77647101879119873,
          0.77647101879119873,
          0.77647101879119873,
          1.0
        ],
        "roughnessFactor": 1.0,
        "metallicFactor": 0.0
      },
      "emissiveFactor": [
        0.0,
        0.0,
        0.0
      ]
    },
    {
      "pbrMetallicRoughness": {
        "baseColorFactor": [
          1.0,
          1.0,
          1.0,
          1.0
        ],
        "roughnessFactor": 1.0,
        "metallicFactor": 0.0
      },
      "emissiveFactor": [
        0.0,
        0.0,
        0.0
      ]
    },
    {
      "pbrMetallicRoughness": {
        "baseColorFactor": [
          1.0,
          1.0,
          1.0,
          1.0
        ],
        "roughnessFactor": 1.0,
        "metallicFactor": 0.0,
        "baseColorTexture": {
          "index": 0
        }
      },
      "emissiveFactor": [
        1.0,
        1.0,
        1.0
      ],
      "emissiveTexture": {
        "index": 1
      }
    },
    {
      "pbrMetallicRoughness": {
        "baseColorFactor": [
          1.0,
          1.0,
          1.0,
          1.0
        ],
        "roughnessFactor": 1.0,
        "metallicFactor": 0.0,
        "baseColorTexture": {
          "index": 2
        }
      },
      "emissiveFactor": [
        0.0,
        0.0,
        0.0
      ]
    }
  ],
  "textures": [
    {
      "source": 0,
      "name": "sbcxalmoxarifado_sbcxalmoxarifado"
    },
    {
      "source": 1,
      "name": "sbcxalmoxarifado_sbcxalmoxarifado_night"
    },
    {
      "source": 2,
      "name": "sbcxalmoxarifado_sbcxterminaltelhado"
    }
  ],
  "images": [
    {
      "uri": "sbcxalmoxarifado_sbcxalmoxarifado.dds"
    },
    {
      "uri": "sbcxalmoxarifado_sbcxalmoxarifado_night.dds"
    },
    {
      "uri": "sbcxalmoxarifado_sbcxterminaltelhado.dds"
    }
  ],
  "bufferViews": [
    {
      "buffer": 0,
      "byteOffset": 0,
      "byteLength": 23340
    },
    {
      "buffer": 0,
      "byteOffset": 23340,
      "byteLength": 37800
    },
    {
      "buffer": 0,
      "byteOffset": 61140,
      "byteLength": 37800
    },
    {
      "buffer": 0,
      "byteOffset": 98940,
      "byteLength": 25200
    }
  ],
  "buffers": [
    {
      "byteLength": 124140,
      "uri": "SBCXAlmoxarifado.bin"
    }
  ]
}